<svg width="592" height="111" viewBox="0 0 592 111" fill="none" xmlns="http://www.w3.org/2000/svg">
<path d="M328.3 1.26318C335.055 1.26318 341.811 1.26318 348.771 1.26318C347.766 7.79385 346.685 14.2052 345.309 20.6532C345.037 21.9395 345.037 21.9395 344.76 23.2518C344.38 25.0429 344 26.8337 343.618 28.6243C343.032 31.375 342.452 34.1267 341.872 36.8786C341.501 38.6256 341.13 40.3725 340.759 42.1193C340.499 43.3547 340.499 43.3547 340.233 44.6152C339.99 45.7513 339.99 45.7513 339.742 46.9103C339.529 47.9113 339.529 47.9113 339.312 48.9324C338.914 50.5452 338.914 50.5452 338.156 52.0616C338.659 51.9374 339.163 51.8133 339.681 51.6854C342.424 51.223 345.1 51.2215 347.87 51.256C348.396 51.2594 348.921 51.2628 349.462 51.2664C350.748 51.2752 352.034 51.2888 353.32 51.3034C353.407 50.7564 353.494 50.2093 353.583 49.6457C354.503 43.9774 355.589 38.3622 356.782 32.7456C356.963 31.887 357.144 31.0284 357.331 30.1437C357.71 28.3482 358.091 26.5528 358.472 24.7577C359.058 22.0001 359.638 19.2417 360.219 16.4832C360.589 14.7328 360.96 12.9824 361.331 11.2321C361.592 9.9931 361.592 9.9931 361.858 8.72904C362.101 7.58927 362.101 7.58927 362.349 6.42647C362.491 5.75688 362.632 5.0873 362.779 4.39743C363.176 2.77955 363.176 2.77955 363.934 1.26318C370.69 1.26318 377.445 1.26318 384.405 1.26318C383.552 9.79299 383.552 9.79299 382.755 13.5511C382.577 14.4025 382.398 15.254 382.214 16.1312C382.02 17.0386 381.825 17.9459 381.624 18.8808C381.418 19.8568 381.213 20.8329 381 21.8385C380.44 24.4924 379.875 27.1453 379.309 29.798C378.715 32.5797 378.126 35.3624 377.537 38.1449C376.548 42.8086 375.556 47.4717 374.562 52.1343C373.411 57.5291 372.266 62.9249 371.124 68.3213C370.023 73.5182 368.919 78.7144 367.814 83.9102C367.344 86.1208 366.875 88.3316 366.407 90.5425C365.755 93.6199 365.098 96.6963 364.441 99.7726C364.246 100.694 364.052 101.615 363.851 102.564C363.673 103.396 363.494 104.228 363.31 105.086C363.078 106.177 363.078 106.177 362.841 107.29C362.418 108.925 362.418 108.925 361.66 109.684C360.144 109.75 358.625 109.765 357.108 109.758C356.187 109.755 355.266 109.753 354.316 109.75C353.346 109.744 352.376 109.738 351.377 109.731C350.404 109.728 349.431 109.724 348.429 109.721C346.015 109.712 343.602 109.699 341.189 109.684C341.7 103.98 342.791 98.4965 344.011 92.9058C344.212 91.9731 344.413 91.0403 344.62 90.0793C345.15 87.6221 345.683 85.1656 346.217 82.7093C346.763 80.1938 347.305 77.6774 347.848 75.161C348.91 70.2404 349.977 65.3208 351.045 60.4016C346.291 60.1514 341.538 59.9012 336.64 59.6434C336.436 60.6775 336.233 61.7115 336.024 62.7769C334.089 72.5603 332.087 82.3286 330.037 92.0887C329.764 93.3934 329.49 94.6982 329.217 96.003C328.83 97.8526 328.441 99.7018 328.051 101.551C327.934 102.109 327.817 102.668 327.697 103.243C327.232 105.439 326.736 107.552 326.025 109.684C319.27 109.684 312.514 109.684 305.554 109.684C306.407 102.007 306.407 102.007 307.035 99.0634C307.176 98.3935 307.317 97.7236 307.463 97.0335C307.616 96.3233 307.769 95.6131 307.927 94.8814C308.09 94.1134 308.253 93.3454 308.421 92.5542C308.958 90.0269 309.499 87.5007 310.041 84.9745C310.42 83.1957 310.799 81.4168 311.178 79.6378C311.973 75.9059 312.771 72.1745 313.57 68.4434C314.582 63.7198 315.589 58.9954 316.595 54.2705C317.379 50.5901 318.165 46.9101 318.951 43.2302C319.322 41.4923 319.693 39.7543 320.063 38.0162C322.683 25.7343 325.451 13.4942 328.3 1.26318Z" fill="#F6F6F6"/>
<path d="M543.624 1.26307C548.25 1.20655 552.876 1.16542 557.502 1.13813C559.074 1.12674 560.645 1.11125 562.216 1.09148C564.484 1.06367 566.752 1.05094 569.02 1.04095C570.062 1.02334 570.062 1.02334 571.125 1.00537C576.662 1.00395 581.87 1.85127 586.367 5.29093C591.026 10.0609 591.593 15.2982 591.522 21.6804C591.286 25.833 590.468 29.8436 589.636 33.9124C589.441 34.8882 589.246 35.8639 589.046 36.8693C588.33 40.421 587.586 43.9668 586.841 47.5123C586.685 48.2558 586.529 48.9993 586.368 49.7653C585.317 54.7737 584.251 59.7788 583.171 64.781C582.809 66.4589 582.449 68.1372 582.092 69.8161C575.974 98.4858 575.974 98.4858 564.853 105.893C557.927 109.494 550.983 109.807 543.313 109.758C542.666 109.756 542.02 109.755 541.353 109.754C539.314 109.75 537.276 109.741 535.237 109.731C533.843 109.727 532.45 109.724 531.056 109.721C527.664 109.712 524.271 109.699 520.878 109.684C521.394 103.992 522.464 98.507 523.659 92.9222C523.865 91.9475 524.071 90.9728 524.284 89.9685C524.844 87.3146 525.409 84.6616 525.975 82.0088C526.568 79.2272 527.157 76.445 527.747 73.6629C528.737 68.9979 529.729 64.3335 530.722 59.6694C531.872 54.2749 533.017 48.8796 534.16 43.4838C535.261 38.2875 536.365 33.0917 537.47 27.8961C537.94 25.6861 538.409 23.476 538.877 21.2657C539.53 18.1867 540.186 15.1085 540.843 12.0304C541.038 11.1107 541.232 10.1911 541.433 9.24354C541.611 8.40923 541.79 7.57491 541.974 6.71531C542.129 5.98755 542.284 5.25978 542.443 4.50996C542.866 2.77944 542.866 2.77944 543.624 1.26307ZM563.337 8.84492C560.699 18.9419 558.513 29.1198 556.359 39.3293C555.99 41.0744 555.62 42.8195 555.25 44.5645C554.482 48.1944 553.715 51.8245 552.949 55.455C551.966 60.1127 550.979 64.7695 549.991 69.4261C549.23 73.0166 548.471 76.6076 547.712 80.1988C547.349 81.9175 546.985 83.6361 546.62 85.3545C546.114 87.7435 545.61 90.1332 545.107 92.5231C544.956 93.2332 544.805 93.9433 544.649 94.6749C544.445 95.6484 544.445 95.6484 544.237 96.6417C544.058 97.4871 544.058 97.4871 543.876 98.3497C543.56 99.951 543.56 99.951 543.624 102.102C548.414 102.574 548.414 102.574 552.627 100.538C555.939 95.9596 557.092 91.0721 558.233 85.6309C558.389 84.9102 558.544 84.1895 558.705 83.447C559.215 81.0766 559.717 78.7045 560.218 76.3323C560.572 74.6751 560.925 73.018 561.279 71.3609C562.019 67.8915 562.755 64.4212 563.487 60.9503C564.424 56.5152 565.373 52.0827 566.325 47.6508C567.058 44.2299 567.784 40.8075 568.508 37.3847C568.855 35.7504 569.204 34.1166 569.556 32.4834C570.048 30.1938 570.53 27.9022 571.01 25.61C571.155 24.9437 571.3 24.2774 571.45 23.5909C572.346 19.2398 573.008 14.802 572.435 10.3613C571.061 8.66049 571.061 8.66049 569.112 8.69684C568.083 8.72323 568.083 8.72323 567.033 8.75015C565.801 8.78174 564.569 8.81333 563.337 8.84492Z" fill="#F6F6F6"/>
<path d="M172.114 1.26311C176.51 1.22537 180.906 1.19798 185.302 1.17981C186.795 1.17223 188.288 1.16192 189.78 1.14872C191.937 1.13013 194.094 1.12168 196.251 1.11503C196.909 1.1072 197.566 1.09937 198.243 1.09131C204.116 1.09026 210.496 1.3916 215.33 5.05404C215.752 5.35115 216.175 5.64826 216.61 5.95438C220.874 11.8429 219.076 20.3007 218.009 26.9803C213.642 52.2405 213.642 52.2405 204.716 60.4015C203.965 60.9019 203.214 61.4023 202.441 61.9179C202.132 63.8101 202.132 63.8101 202.252 66.0642C202.272 66.9526 202.293 67.841 202.314 68.7564C202.554 74.4415 202.859 80.1208 203.199 85.8007C203.345 88.2252 203.486 90.6498 203.626 93.0746C203.676 93.8723 203.676 93.8723 203.726 94.6862C204.014 99.7082 203.957 104.622 203.957 109.684C196.952 109.684 189.946 109.684 182.728 109.684C182.619 105.628 182.51 101.573 182.404 97.5176C182.368 96.1451 182.332 94.7726 182.294 93.4002C182.036 83.9144 181.921 74.4399 181.97 64.9506C181.22 65.2008 180.469 65.451 179.696 65.7088C179.011 67.4704 179.011 67.4704 178.614 69.6684C178.435 70.5135 178.255 71.3586 178.07 72.2293C177.885 73.1493 177.7 74.0694 177.51 75.0173C177.214 76.4239 177.214 76.4239 176.913 77.8589C176.39 80.3561 175.876 82.8547 175.366 85.3546C174.645 88.8765 173.909 92.3952 173.174 95.9141C172.783 97.7892 172.396 99.6649 172.012 101.541C171.837 102.389 171.663 103.236 171.483 104.11C171.329 104.858 171.176 105.607 171.019 106.378C170.597 108.167 170.597 108.167 169.839 109.684C163.084 109.684 156.328 109.684 149.368 109.684C150.393 103.02 151.513 96.4835 152.924 89.9052C153.122 88.9683 153.321 88.0313 153.526 87.066C154.064 84.5298 154.605 81.9943 155.147 79.459C155.716 76.7942 156.282 74.1287 156.849 71.4633C157.799 66.9982 158.75 62.5336 159.703 58.0692C160.805 52.9096 161.904 47.7494 163.001 42.5889C164.172 37.0793 165.345 31.5701 166.519 26.0611C166.857 24.4772 167.194 22.8933 167.531 21.3093C168.157 18.3654 168.785 15.4219 169.414 12.4785C169.601 11.6018 169.787 10.7251 169.979 9.82183C170.15 9.02276 170.321 8.22368 170.497 7.40039C170.646 6.70521 170.794 6.01004 170.947 5.2938C171.356 3.53767 171.356 3.53767 172.114 1.26311ZM191.068 8.84496C189.779 14.7098 188.493 20.5755 187.213 26.4424C186.618 29.1668 186.022 31.8909 185.423 34.6142C184.844 37.2435 184.27 39.8736 183.698 42.5043C183.373 43.9937 183.044 45.4822 182.715 46.9707C182.517 47.8812 182.32 48.7917 182.117 49.7297C181.942 50.5295 181.767 51.3292 181.586 52.1532C181.236 54.1972 181.139 56.0589 181.212 58.127C183.716 58.0769 185.737 57.9684 187.778 56.4033C193.415 50.2621 194.903 41.8608 196.597 33.9584C196.944 32.3491 197.306 30.7438 197.67 29.1383C200.254 19.1635 200.254 19.1635 197.892 9.60314C195.65 8.4823 193.538 8.79922 191.068 8.84496Z" fill="#F6F6F6"/>
<path d="M112.217 1.26311C116.613 1.22537 121.01 1.19798 125.406 1.17981C126.899 1.17223 128.391 1.16192 129.884 1.14872C132.041 1.13013 134.198 1.12168 136.355 1.11503C137.012 1.1072 137.67 1.09938 138.347 1.09131C144.127 1.09027 150.741 1.3271 155.434 5.05404C159.185 9.01376 159.332 12.1653 159.313 17.4919C159.156 20.9943 158.528 24.4032 157.898 27.847C157.76 28.6089 157.623 29.3709 157.482 30.156C153.19 53.4337 153.19 53.4337 144.061 61.1597C143.31 61.535 143.31 61.535 142.545 61.9179C142.653 65.2982 142.764 68.6785 142.876 72.0586C142.893 72.5613 142.91 73.0639 142.927 73.5817C143.126 79.5075 143.359 85.4272 143.729 91.345C144.111 97.4673 144.117 103.549 144.061 109.684C137.055 109.684 130.05 109.684 122.832 109.684C122.582 94.9217 122.331 80.1598 122.074 64.9506C121.323 65.2008 120.572 65.451 119.799 65.7088C119.114 67.507 119.114 67.507 118.718 69.75C118.448 71.0441 118.448 71.0441 118.174 72.3643C117.989 73.3033 117.804 74.2424 117.613 75.2098C117.313 76.6707 117.012 78.1316 116.711 79.5924C116.291 81.6438 115.88 83.697 115.469 85.7502C114.749 89.3442 114.013 92.9353 113.278 96.5263C112.886 98.44 112.499 100.355 112.116 102.27C111.941 103.133 111.766 103.995 111.586 104.884C111.356 106.03 111.356 106.03 111.122 107.199C110.701 108.925 110.701 108.925 109.943 109.684C108.427 109.75 106.908 109.765 105.391 109.758C104.469 109.755 103.548 109.753 102.599 109.75C101.629 109.744 100.659 109.737 99.6598 109.731C98.6868 109.728 97.7139 109.724 96.7115 109.721C94.2982 109.712 91.8849 109.698 89.4717 109.684C90.4756 103.333 91.6812 97.0479 93.0273 90.7615C93.3253 89.3581 93.3253 89.3581 93.6294 87.9263C94.1679 85.3902 94.709 82.8546 95.2505 80.3191C95.8192 77.6545 96.3857 74.9894 96.9525 72.3244C97.9026 67.8581 98.8543 63.3921 99.8069 58.9263C101.029 53.197 102.249 47.4672 103.468 41.7373C104.519 36.7981 105.571 31.859 106.623 26.9201C106.96 25.337 107.297 23.7539 107.634 22.1708C108.261 19.2254 108.89 16.2801 109.518 13.3348C109.704 12.4597 109.89 11.5845 110.082 10.6828C110.254 9.88156 110.425 9.08034 110.601 8.25485C110.749 7.55939 110.897 6.86393 111.05 6.1474C111.412 4.51093 111.801 2.88632 112.217 1.26311ZM131.172 8.84496C129.883 14.822 128.598 20.7997 127.317 26.7783C126.721 29.5544 126.125 32.3303 125.527 35.1056C124.949 37.7843 124.374 40.4635 123.801 43.1433C123.582 44.1652 123.362 45.1869 123.141 46.2084C122.831 47.6398 122.526 49.0721 122.22 50.5044C122.045 51.3193 121.87 52.1342 121.69 52.9737C121.228 55.2331 121.228 55.2331 121.315 58.127C123.82 58.0769 125.841 57.9684 127.881 56.4033C133.425 50.364 134.972 42.0931 136.701 34.3239C137.047 32.7777 137.41 31.2358 137.773 29.6936C140.436 19.45 140.436 19.45 137.996 9.60315C135.754 8.4823 133.642 8.79922 131.172 8.84496Z" fill="#F6F6F6"/>
<path d="M512.017 0.220699C512.761 0.202129 513.505 0.18356 514.272 0.164427C519.505 0.143648 523.836 1.00727 528.46 3.53776C532.897 7.9746 533.704 12.6042 533.767 18.7015C533.468 21.683 532.885 24.5702 532.254 27.4976C532.082 28.338 531.911 29.1785 531.734 30.0444C531.161 32.837 530.569 35.6255 529.976 38.4143C529.662 39.9214 529.349 41.4288 529.036 42.9363C527.821 48.7816 526.578 54.6205 525.322 60.4572C524.732 63.2016 524.148 65.9474 523.566 68.6937C523.107 70.8541 522.644 73.0135 522.179 75.1726C521.858 76.6668 521.542 78.162 521.227 79.6573C517.544 96.6351 517.544 96.6351 511.78 102.86C511.21 103.49 511.21 103.49 510.628 104.133C504.697 109.934 497.2 110.708 489.271 110.774C488.605 110.781 487.939 110.789 487.253 110.797C481.827 110.724 477.073 109.708 472.449 106.793C468.477 102.704 467.625 98.0623 467.694 92.5979C467.882 89.4405 468.525 86.4129 469.197 83.3278C469.345 82.6238 469.493 81.9198 469.645 81.1945C470.13 78.8901 470.626 76.5879 471.122 74.2859C471.466 72.6746 471.809 71.0632 472.152 69.4517C472.866 66.1036 473.584 62.7566 474.304 59.4098C475.196 55.2502 476.063 51.0858 476.92 46.9188C477.571 43.7624 478.232 40.6083 478.895 37.4546C479.207 35.9624 479.514 34.4694 479.818 32.9755C484.239 11.2541 484.239 11.2541 492.319 5.25848C492.94 4.89393 493.56 4.52938 494.2 4.15378C494.814 3.78337 495.429 3.41295 496.062 3.03131C501.33 0.461601 506.268 0.22816 512.017 0.220699ZM507.563 8.75028C503.762 13.6228 502.982 20.3989 501.732 26.3562C501.578 27.0797 501.423 27.8032 501.264 28.5486C500.76 30.9144 500.261 33.2812 499.762 35.6481C499.41 37.3056 499.058 38.9631 498.706 40.6206C497.971 44.0831 497.238 47.5461 496.507 51.0095C495.572 55.4393 494.632 59.8681 493.69 64.2965C492.964 67.7148 492.24 71.1336 491.517 74.5526C491.171 76.1857 490.825 77.8186 490.477 79.4513C489.992 81.7348 489.511 84.0189 489.03 86.3032C488.816 87.3054 488.816 87.3054 488.598 88.3279C486.756 95.3324 486.756 95.3324 487.85 102.102C488.241 102.602 488.632 103.103 489.034 103.618C491.469 103.415 492.612 103.055 494.436 101.391C497.606 96.2145 498.588 89.8207 499.852 83.9381C500.008 83.2257 500.164 82.5133 500.324 81.7793C500.832 79.449 501.335 77.1178 501.838 74.7864C502.191 73.1513 502.545 71.5163 502.899 69.8812C503.637 66.464 504.373 63.0462 505.107 59.6281C506.045 55.2638 506.993 50.902 507.945 46.5406C508.678 43.1679 509.404 39.7936 510.128 36.4188C510.474 34.8104 510.823 33.2027 511.175 31.5956C511.668 29.3428 512.15 27.0879 512.629 24.8323C512.774 24.1794 512.92 23.5265 513.069 22.8538C514.033 18.2392 514.602 13.5547 514.055 8.84505C513.554 8.34465 513.054 7.84425 512.538 7.32868C509.512 7.0302 509.512 7.0302 507.563 8.75028Z" fill="#F6F6F6"/>
<path d="M415.728 0.220699C416.472 0.202129 417.216 0.18356 417.983 0.164427C423.216 0.143648 427.547 1.00727 432.171 3.53776C435.651 7.01778 437.12 10.635 437.481 15.4766C437.478 18.3366 437.05 21.0281 436.523 23.8272C436.42 24.3893 436.318 24.9514 436.212 25.5306C435.056 31.7783 433.756 37.9958 432.435 44.2102C432.173 45.4449 431.912 46.6796 431.65 47.9143C431.107 50.4765 430.562 53.0383 430.016 55.5998C429.322 58.857 428.635 62.1155 427.949 65.3745C427.413 67.9154 426.873 70.4553 426.331 72.9949C426.076 74.1953 425.822 75.3961 425.57 76.5973C421.396 96.4825 421.396 96.4826 415.491 102.86C414.921 103.49 414.921 103.49 414.339 104.133C408.408 109.934 400.911 110.708 392.982 110.774C392.316 110.781 391.65 110.789 390.964 110.797C385.538 110.724 380.784 109.708 376.16 106.793C372.188 102.704 371.336 98.0623 371.405 92.5979C371.593 89.4405 372.235 86.4129 372.908 83.3278C373.056 82.6238 373.204 81.9198 373.356 81.1945C373.841 78.8901 374.337 76.5879 374.833 74.2859C375.177 72.6746 375.52 71.0632 375.863 69.4517C376.577 66.1036 377.295 62.7566 378.015 59.4098C378.907 55.2502 379.774 51.0858 380.631 46.9188C381.282 43.7624 381.943 40.6083 382.606 37.4546C382.918 35.9624 383.225 34.4694 383.528 32.9755C387.95 11.2541 387.95 11.2541 396.03 5.25848C396.65 4.89393 397.271 4.52938 397.91 4.15378C398.525 3.78337 399.14 3.41295 399.773 3.03131C405.041 0.461601 409.979 0.22816 415.728 0.220699ZM411.273 8.75028C407.473 13.6228 406.693 20.3989 405.443 26.3562C405.289 27.0797 405.134 27.8032 404.975 28.5486C404.471 30.9144 403.972 33.2812 403.472 35.6481C403.121 37.3056 402.769 38.9631 402.417 40.6206C401.682 44.0831 400.949 47.5461 400.218 51.0095C399.283 55.4393 398.343 59.8681 397.401 64.2965C396.675 67.7148 395.951 71.1336 395.228 74.5526C394.882 76.1857 394.535 77.8186 394.188 79.4513C393.703 81.7348 393.221 84.0189 392.741 86.3032C392.527 87.3054 392.527 87.3054 392.308 88.3279C390.467 95.3324 390.467 95.3324 391.561 102.102C391.952 102.602 392.343 103.103 392.745 103.618C395.18 103.415 396.323 103.055 398.147 101.391C401.284 96.2683 402.263 89.9721 403.482 84.1443C403.629 83.4542 403.776 82.764 403.927 82.053C404.407 79.7992 404.881 77.5446 405.356 75.2899C405.691 73.7119 406.026 72.1339 406.361 70.556C407.238 66.4212 408.112 62.2856 408.985 58.1498C409.875 53.9376 410.768 49.7263 411.661 45.5148C412.965 39.367 414.267 33.219 415.565 27.0702C415.701 26.4293 415.836 25.7884 415.976 25.1281C416.321 23.4917 416.665 21.8549 417.007 20.2178C417.236 19.1287 417.236 19.1287 417.469 18.0176C417.816 16.1565 417.893 14.3862 417.908 12.4938C417.918 11.8419 417.929 11.19 417.94 10.5184C417.927 8.68785 417.927 8.68785 416.249 7.32868C413.223 7.0302 413.223 7.0302 411.273 8.75028Z" fill="#F6F6F6"/>
<path d="M249.449 1.26318C254.453 1.26318 259.457 1.26318 264.612 1.26318C264.68 13.3696 264.428 25.4259 263.976 37.5228C263.909 39.3488 263.843 41.1748 263.777 43.0009C263.639 46.7926 263.5 50.5843 263.358 54.3759C263.178 59.2174 263.002 64.059 262.828 68.9007C262.693 72.6571 262.555 76.4134 262.416 80.1697C262.351 81.9552 262.286 83.7407 262.221 85.5262C262.131 88.0194 262.038 90.5125 261.944 93.0056C261.906 94.0911 261.906 94.0911 261.866 95.1985C261.679 100.062 261.264 104.821 260.821 109.684C254.066 109.684 247.311 109.684 240.351 109.684C240.351 103.86 240.397 98.1007 240.682 92.2928C240.712 91.6062 240.742 90.9196 240.773 90.2122C240.924 87.0322 241.096 83.9761 241.867 80.8726C241.443 80.8814 241.019 80.8902 240.582 80.8992C234.917 80.963 229.314 80.5698 223.67 80.1144C223.551 80.5922 223.432 81.07 223.309 81.5623C221.746 87.577 219.694 93.3494 217.51 99.1638C217.165 100.096 216.82 101.029 216.465 101.989C213.918 108.822 213.918 108.822 213.056 109.684C211.651 109.738 210.244 109.747 208.838 109.731C208.071 109.724 207.304 109.717 206.514 109.71C205.624 109.697 205.624 109.697 204.716 109.684C206.232 104.93 207.966 100.315 209.884 95.7105C210.163 95.0351 210.442 94.3597 210.73 93.6638C211.645 91.4525 212.564 89.2426 213.482 87.0328C214.13 85.4703 214.778 83.9077 215.425 82.3451C221.065 68.7416 226.748 55.156 232.446 41.5765C234.603 36.4349 236.755 31.2913 238.905 26.147C239.542 24.6244 240.179 23.1018 240.815 21.5792C241.738 19.3729 242.66 17.1665 243.582 14.9599C244.425 12.9441 245.268 10.9286 246.111 8.91315C246.362 8.31145 246.613 7.70975 246.872 7.08981C248.604 2.95227 248.604 2.95227 249.449 1.26318ZM243.383 24.7669C241.43 30.2104 239.479 35.6546 237.531 41.0996C236.625 43.6283 235.72 46.1568 234.813 48.6847C233.768 51.5955 232.726 54.5074 231.685 57.4192C231.199 58.7712 231.199 58.7712 230.703 60.1505C230.4 61.0002 230.096 61.8498 229.784 62.7252C229.518 63.4677 229.252 64.2102 228.978 64.9752C228.138 67.4682 227.426 70.003 226.703 72.5326C234.209 72.1573 234.209 72.1573 241.867 71.7744C242.423 69.5517 242.743 67.892 242.85 65.6667C242.881 65.0685 242.911 64.4704 242.942 63.8541C242.986 62.8899 242.986 62.8899 243.031 61.9061C243.08 60.8955 243.08 60.8955 243.13 59.8645C243.198 58.4344 243.265 57.0043 243.33 55.5741C243.429 53.4276 243.534 51.2816 243.639 49.1354C244.028 41.0047 244.24 32.9072 244.141 24.7669C243.891 24.7669 243.641 24.7669 243.383 24.7669Z" fill="#F6F6F6"/>
<path d="M64.4516 1.26318C78.7131 1.26318 92.9745 1.26318 107.668 1.26318C106.91 8.08685 106.91 8.08685 106.152 11.1196C98.5172 10.6663 90.9833 9.8586 83.4062 8.84503C83.3697 9.30102 83.3331 9.75701 83.2954 10.2268C82.8707 15.0051 82.0919 19.6127 81.0813 24.299C80.9309 25.0119 80.7805 25.7248 80.6256 26.4593C80.1504 28.7076 79.6697 30.9547 79.1888 33.2017C78.8632 34.7378 78.5379 36.2739 78.213 37.8101C77.4217 41.5507 76.6229 45.2897 75.8244 49.0288C83.3304 48.6535 83.3304 48.6535 90.9881 48.2706C90.2299 55.0943 90.2299 55.0943 89.4717 58.1271C87.2443 58.0203 85.0172 57.9092 82.7902 57.7953C82.1583 57.7655 81.5265 57.7357 80.8755 57.705C80.2671 57.6733 79.6587 57.6415 79.0319 57.6088C78.472 57.581 77.9122 57.5532 77.3354 57.5245C75.8244 57.3689 75.8244 57.3689 73.5498 56.6107C73.4532 57.3572 73.4532 57.3572 73.3547 58.1187C72.0815 67.1367 70.068 76.003 68.1478 84.9005C67.7891 86.5723 67.4308 88.2441 67.0727 89.916C66.2019 93.9786 65.328 98.0405 64.4516 102.102C64.952 101.852 65.4524 101.601 65.968 101.344C68.1172 101.039 70.2555 100.772 72.4125 100.538C73.0272 100.47 73.6418 100.402 74.2751 100.333C78.6067 99.8778 82.8394 99.6867 87.1971 99.8272C86.4465 103.08 85.6959 106.332 84.9226 109.684C70.6611 109.684 56.3997 109.684 41.7061 109.684C46.0611 87.0371 46.0611 87.0371 47.6673 79.5898C47.8527 78.7217 48.0382 77.8536 48.2292 76.9592C48.8221 74.1861 49.4177 71.4135 50.0135 68.6409C50.4332 66.6803 50.8528 64.7196 51.2722 62.7589C52.2505 58.1864 53.2309 53.6142 54.2121 49.0423C55.4429 43.3064 56.6709 37.5699 57.8989 31.8334C60.0805 21.6428 62.2662 11.453 64.4516 1.26318Z" fill="#F6F6F6"/>
<path d="M5.31278 1.26318C24.0779 1.26318 42.8429 1.26318 62.1766 1.26318C61.4185 8.84503 61.4185 8.84503 59.9021 11.8778C57.2794 11.5188 54.6576 11.1539 52.0359 10.7879C51.2892 10.6857 50.5425 10.5836 49.7732 10.4784C49.0598 10.3782 48.3463 10.278 47.6112 10.1748C46.9521 10.0835 46.293 9.99218 45.6139 9.89809C43.9802 9.60322 43.9802 9.60322 42.4638 8.84503C42.3776 9.78033 42.2913 10.7156 42.2025 11.6793C41.7023 16.1538 40.7689 20.5122 39.822 24.9104C39.6309 25.8111 39.4397 26.7119 39.2428 27.6399C38.722 30.0901 38.1983 32.5396 37.6732 34.9888C37.1229 37.5578 36.5762 40.1275 36.0289 42.6972C35.1109 47.0052 34.1902 51.3127 33.2679 55.6198C32.2013 60.6009 31.1385 65.5828 30.0779 70.5651C29.056 75.3647 28.0319 80.1638 27.0065 84.9626C26.5705 87.0033 26.1352 89.0442 25.7006 91.0851C25.095 93.9281 24.4859 96.7702 23.8765 99.6123C23.6961 100.461 23.5156 101.31 23.3298 102.184C23.081 103.34 23.081 103.34 22.8273 104.519C22.6836 105.191 22.5399 105.863 22.3919 106.555C21.9928 108.167 21.9928 108.167 21.2347 109.684C14.4792 109.684 7.72381 109.684 0.763672 109.684C1.78913 103.531 2.88661 97.455 4.19216 91.3639C4.37726 90.4924 4.56236 89.6209 4.75306 88.723C5.15138 86.8488 5.55062 84.9749 5.95069 83.1011C6.58323 80.1384 7.21339 77.1753 7.84285 74.2119C9.06352 68.4673 10.2871 62.7232 11.5111 56.9792C13.0748 49.6404 14.6374 42.3013 16.1969 34.9615C16.924 31.5401 17.6536 28.1193 18.3836 24.6985C18.7621 22.919 19.1405 21.1395 19.5188 19.36C19.6936 18.5432 19.8685 17.7264 20.0486 16.8848C20.2059 16.1431 20.3632 15.4014 20.5253 14.6372C20.6631 13.9906 20.8009 13.3441 20.9429 12.678C21.2812 11.1354 21.2812 11.1354 21.2347 9.60322C15.48 10.3538 9.72542 11.1044 3.79641 11.8778C4.5546 4.29592 4.5546 4.29592 5.31278 1.26318Z" fill="#F6F6F6"/>
<path d="M447.335 1.26318C454.09 1.26318 460.846 1.26318 467.806 1.26318C466.953 8.93981 466.953 8.93981 466.208 12.4478C465.958 13.6389 465.958 13.6389 465.702 14.854C465.521 15.7015 465.339 16.549 465.152 17.4222C464.96 18.3328 464.767 19.2433 464.569 20.1815C464.045 22.6582 463.518 25.1342 462.99 27.61C462.437 30.2049 461.888 32.8007 461.339 35.3964C460.3 40.3026 459.257 45.208 458.213 50.1132C457.024 55.7015 455.839 61.2905 454.654 66.8796C452.219 78.3685 449.778 89.8564 447.335 101.344C448.625 101.179 448.625 101.179 449.941 101.012C451.094 100.87 452.247 100.727 453.4 100.585C454.246 100.477 454.246 100.477 455.109 100.366C458.866 99.9089 462.505 99.7584 466.29 99.8272C465.539 103.08 464.788 106.332 464.015 109.684C451.005 109.684 437.994 109.684 424.589 109.684C425.442 102.007 425.442 102.007 426.24 98.2501C426.418 97.4009 426.597 96.5516 426.781 95.6766C427.073 94.3132 427.073 94.3132 427.37 92.9223C427.576 91.9476 427.782 90.9729 427.994 89.9687C428.555 87.3147 429.12 84.6617 429.686 82.0089C430.279 79.2274 430.868 76.4451 431.458 73.663C432.447 68.998 433.439 64.3336 434.433 59.6695C435.582 54.275 436.728 48.8797 437.871 43.4839C438.972 38.2876 440.076 33.0918 441.181 27.8962C441.651 25.6862 442.12 23.4761 442.588 21.2658C443.241 18.1868 443.897 15.1086 444.554 12.0305C444.748 11.1108 444.943 10.1912 445.144 9.24365C445.322 8.40934 445.501 7.57502 445.685 6.71543C445.84 5.98766 445.994 5.25989 446.154 4.51007C446.577 2.77955 446.577 2.77955 447.335 1.26318Z" fill="#F6F6F6"/>
<path d="M275.985 53.5781C287.244 53.5781 298.503 53.5781 310.104 53.5781C309.346 61.16 309.346 61.16 307.829 68.7418C296.32 68.7418 284.811 68.7418 272.953 68.7418C273.953 63.7378 274.954 58.7338 275.985 53.5781Z" fill="#F6F6F6"/>
</svg>
