<svg width="627" height="281" viewBox="0 0 627 281" fill="none" xmlns="http://www.w3.org/2000/svg">
<g id="Frame 47" clip-path="url(#clip0_517_1110)">
<g id="Group 211">
<g id="Group 195">
<path id="Vector" d="M170.672 156.732C177.433 156.732 184.194 156.732 191.16 156.732C190.154 163.263 189.072 169.674 187.695 176.122C187.423 177.409 187.423 177.409 187.145 178.721C186.766 180.512 186.385 182.303 186.003 184.094C185.417 186.844 184.836 189.596 184.255 192.348C183.884 194.095 183.513 195.842 183.142 197.589C182.881 198.824 182.881 198.824 182.615 200.084C182.372 201.221 182.372 201.221 182.124 202.38C181.911 203.38 181.911 203.38 181.693 204.402C181.296 206.014 181.296 206.014 180.537 207.531C181.04 207.407 181.544 207.283 182.063 207.155C184.808 206.692 187.486 206.691 190.259 206.725C190.785 206.729 191.31 206.732 191.852 206.736C193.139 206.744 194.426 206.758 195.713 206.773C195.8 206.226 195.887 205.679 195.976 205.115C196.897 199.447 197.983 193.831 199.178 188.215C199.359 187.356 199.54 186.498 199.727 185.613C200.107 183.817 200.487 182.022 200.869 180.227C201.455 177.469 202.036 174.711 202.617 171.952C202.988 170.202 203.359 168.452 203.73 166.701C203.991 165.462 203.991 165.462 204.257 164.198C204.501 163.059 204.501 163.059 204.749 161.896C204.891 161.226 205.033 160.557 205.179 159.867C205.577 158.249 205.577 158.249 206.336 156.732C213.097 156.732 219.857 156.732 226.823 156.732C225.969 165.262 225.969 165.262 225.172 169.02C224.993 169.872 224.814 170.723 224.63 171.6C224.435 172.508 224.241 173.415 224.04 174.35C223.834 175.326 223.628 176.302 223.415 177.308C222.855 179.962 222.289 182.615 221.722 185.267C221.128 188.049 220.539 190.832 219.949 193.614C218.959 198.278 217.966 202.941 216.971 207.604C215.82 212.998 214.674 218.394 213.531 223.791C212.429 228.987 211.325 234.184 210.218 239.379C209.748 241.59 209.278 243.801 208.81 246.012C208.157 249.089 207.5 252.166 206.843 255.242C206.648 256.163 206.453 257.084 206.252 258.033C206.074 258.866 205.895 259.698 205.711 260.555C205.478 261.646 205.478 261.646 205.241 262.76C204.818 264.395 204.818 264.395 204.059 265.153C202.542 265.219 201.022 265.234 199.504 265.227C198.582 265.224 197.66 265.222 196.71 265.219C195.739 265.213 194.768 265.207 193.768 265.2C192.794 265.197 191.821 265.193 190.818 265.19C188.402 265.181 185.987 265.168 183.572 265.153C184.084 259.449 185.175 253.966 186.397 248.375C186.598 247.442 186.799 246.51 187.006 245.549C187.536 243.091 188.069 240.635 188.604 238.179C189.151 235.663 189.693 233.147 190.237 230.63C191.3 225.71 192.367 220.79 193.436 215.871C188.679 215.621 183.921 215.37 179.019 215.113C178.816 216.147 178.612 217.181 178.403 218.246C176.466 228.03 174.462 237.798 172.412 247.558C172.137 248.863 171.864 250.167 171.591 251.472C171.203 253.322 170.814 255.171 170.423 257.02C170.307 257.579 170.19 258.137 170.069 258.712C169.604 260.908 169.107 263.021 168.396 265.153C161.635 265.153 154.874 265.153 147.909 265.153C148.762 257.476 148.762 257.476 149.391 254.533C149.532 253.863 149.673 253.193 149.819 252.503C149.972 251.793 150.125 251.082 150.283 250.351C150.446 249.583 150.609 248.815 150.777 248.023C151.315 245.496 151.857 242.97 152.399 240.444C152.779 238.665 153.158 236.886 153.537 235.107C154.333 231.375 155.131 227.644 155.931 223.913C156.944 219.189 157.952 214.465 158.959 209.74C159.743 206.059 160.529 202.379 161.316 198.699C161.688 196.962 162.059 195.224 162.429 193.485C165.051 181.204 167.822 168.963 170.672 156.732Z" fill="#F6F6F6"/>
<path id="Vector_2" d="M386.169 156.732C390.799 156.676 395.428 156.635 400.058 156.607C401.631 156.596 403.204 156.58 404.776 156.561C407.046 156.533 409.316 156.52 411.586 156.51C412.628 156.493 412.628 156.493 413.692 156.475C419.233 156.473 424.446 157.321 428.946 160.76C433.609 165.53 434.176 170.767 434.105 177.15C433.869 181.302 433.051 185.313 432.218 189.382C432.023 190.357 431.828 191.333 431.627 192.338C430.911 195.89 430.167 199.436 429.42 202.982C429.264 203.725 429.108 204.469 428.948 205.235C427.895 210.243 426.829 215.248 425.747 220.25C425.385 221.928 425.025 223.606 424.668 225.285C418.545 253.955 418.545 253.955 407.415 261.362C400.484 264.963 393.534 265.276 385.858 265.227C385.211 265.226 384.563 265.225 383.897 265.224C381.856 265.219 379.815 265.21 377.775 265.2C376.38 265.196 374.986 265.193 373.591 265.19C370.196 265.181 366.801 265.168 363.405 265.153C363.921 259.461 364.992 253.976 366.189 248.391C366.395 247.417 366.601 246.442 366.813 245.438C367.374 242.784 367.94 240.131 368.506 237.478C369.099 234.696 369.689 231.914 370.279 229.132C371.27 224.467 372.262 219.803 373.257 215.139C374.407 209.744 375.554 204.349 376.698 198.953C377.8 193.757 378.904 188.561 380.01 183.365C380.48 181.155 380.95 178.945 381.419 176.735C382.072 173.656 382.729 170.578 383.386 167.5C383.581 166.58 383.775 165.66 383.976 164.713C384.155 163.878 384.333 163.044 384.518 162.185C384.673 161.457 384.828 160.729 384.987 159.979C385.41 158.249 385.41 158.249 386.169 156.732ZM405.898 164.314C403.258 174.411 401.07 184.589 398.914 194.799C398.545 196.544 398.175 198.289 397.805 200.034C397.035 203.664 396.268 207.294 395.501 210.924C394.518 215.582 393.53 220.239 392.541 224.895C391.78 228.486 391.02 232.077 390.261 235.668C389.897 237.387 389.533 239.105 389.168 240.824C388.661 243.213 388.157 245.602 387.653 247.992C387.502 248.702 387.351 249.412 387.195 250.144C386.991 251.118 386.991 251.118 386.782 252.111C386.604 252.956 386.604 252.956 386.421 253.819C386.105 255.42 386.105 255.42 386.169 257.571C390.963 258.043 390.963 258.043 395.18 256.007C398.494 251.429 399.648 246.541 400.79 241.1C400.945 240.379 401.101 239.659 401.262 238.916C401.772 236.546 402.275 234.174 402.777 231.801C403.13 230.144 403.484 228.487 403.839 226.83C404.579 223.361 405.315 219.89 406.048 216.42C406.986 211.984 407.935 207.552 408.888 203.12C409.622 199.699 410.349 196.277 411.073 192.854C411.42 191.22 411.77 189.586 412.122 187.953C412.614 185.663 413.096 183.371 413.577 181.079C413.722 180.413 413.867 179.747 414.017 179.06C414.914 174.709 415.576 170.271 415.003 165.831C413.628 164.13 413.628 164.13 411.678 164.166C410.648 164.192 410.648 164.192 409.597 164.219C408.364 164.251 407.131 164.283 405.898 164.314Z" fill="#F6F6F6"/>
<path id="Vector_3" d="M14.3614 156.732C18.7612 156.695 23.1608 156.667 27.5606 156.649C29.0545 156.641 30.5484 156.631 32.0423 156.618C34.201 156.599 36.3595 156.591 38.5183 156.584C39.1762 156.576 39.8342 156.569 40.512 156.561C46.3897 156.559 52.7743 156.861 57.6126 160.523C58.0351 160.82 58.4577 161.118 58.8931 161.424C63.1606 167.312 61.3617 175.77 60.2939 182.45C55.9234 207.71 55.9234 207.71 46.9895 215.871C46.2383 216.371 45.4871 216.872 44.7131 217.387C44.4034 219.279 44.4034 219.279 44.5234 221.533C44.544 222.422 44.5645 223.31 44.5857 224.226C44.8258 229.911 45.1309 235.59 45.4719 241.27C45.6175 243.694 45.7592 246.119 45.8987 248.544C45.9485 249.342 45.9485 249.342 45.9993 250.155C46.2877 255.177 46.2307 260.091 46.2307 265.153C39.2195 265.153 32.2082 265.153 24.9845 265.153C24.8747 261.098 24.7661 257.042 24.6603 252.987C24.6242 251.614 24.5874 250.242 24.5499 248.869C24.2913 239.384 24.1768 229.909 24.2257 220.42C23.4745 220.67 22.7233 220.92 21.9493 221.178C21.2641 222.94 21.2641 222.94 20.8671 225.138C20.6874 225.983 20.5078 226.828 20.3226 227.699C20.1376 228.619 19.9525 229.539 19.7619 230.487C19.4663 231.893 19.4663 231.893 19.1647 233.328C18.6414 235.825 18.1267 238.324 17.6163 240.824C16.8951 244.346 16.158 247.864 15.4226 251.383C15.0317 253.258 14.644 255.134 14.2597 257.011C14.0848 257.858 13.9099 258.706 13.7297 259.579C13.5765 260.327 13.4233 261.076 13.2655 261.847C12.8438 263.636 12.8438 263.636 12.085 265.153C5.32421 265.153 -1.43663 265.153 -8.40234 265.153C-7.3763 258.489 -6.25611 251.953 -4.84384 245.374C-4.64501 244.437 -4.44618 243.501 -4.24133 242.535C-3.70303 239.999 -3.16133 237.464 -2.61887 234.928C-2.04925 232.263 -1.48262 229.598 -0.91558 226.933C0.034795 222.467 0.987291 218.003 1.9412 213.538C3.04365 208.379 4.14322 203.219 5.24116 198.058C6.4134 192.549 7.58763 187.039 8.7625 181.53C9.10014 179.946 9.43741 178.363 9.77461 176.779C10.4015 173.835 11.0305 170.891 11.6599 167.948C11.8464 167.071 12.0328 166.194 12.2249 165.291C12.3962 164.492 12.5674 163.693 12.7438 162.87C12.8922 162.174 13.0406 161.479 13.1935 160.763C13.6026 159.007 13.6026 159.007 14.3614 156.732ZM33.3312 164.314C32.0404 170.179 30.7539 176.045 29.4728 181.912C28.8778 184.636 28.2813 187.36 27.6814 190.083C27.1023 192.713 26.5271 195.343 25.9545 197.974C25.6293 199.463 25.3001 200.951 24.9709 202.44C24.7734 203.35 24.5759 204.261 24.3724 205.199C24.1972 205.999 24.022 206.798 23.8414 207.622C23.4908 209.666 23.3941 211.528 23.4669 213.596C25.9733 213.546 27.9961 213.438 30.0382 211.873C35.6793 205.731 37.1692 197.33 38.8647 189.428C39.2118 187.818 39.5743 186.213 39.9381 184.607C42.5238 174.633 42.5238 174.633 40.1604 165.072C37.9169 163.952 35.8032 164.268 33.3312 164.314Z" fill="#F6F6F6"/>
<path id="Vector_4" d="M-45.5829 156.732C-41.1832 156.695 -36.7836 156.667 -32.3837 156.649C-30.8898 156.641 -29.3959 156.631 -27.9021 156.618C-25.7434 156.599 -23.5848 156.591 -21.426 156.584C-20.7681 156.576 -20.1102 156.569 -19.4323 156.561C-13.6472 156.56 -7.02868 156.796 -2.33174 160.523C1.42259 164.483 1.56973 167.635 1.5504 172.961C1.39344 176.463 0.764956 179.872 0.134334 183.316C-0.00315407 184.078 -0.140643 184.84 -0.282297 185.625C-4.57765 208.903 -4.57765 208.903 -13.7136 216.629C-14.4648 217.004 -14.4648 217.004 -15.2312 217.387C-15.1231 220.767 -15.012 224.148 -14.8992 227.528C-14.8825 228.03 -14.8658 228.533 -14.8485 229.051C-14.6492 234.977 -14.4166 240.896 -14.0456 246.814C-13.6639 252.937 -13.6578 259.018 -13.7136 265.153C-20.7249 265.153 -27.7361 265.153 -34.9598 265.153C-35.2102 250.391 -35.4606 235.629 -35.7186 220.42C-36.4698 220.67 -37.221 220.92 -37.995 221.178C-38.6807 222.976 -38.6807 222.976 -39.0772 225.219C-39.3467 226.513 -39.3467 226.513 -39.6217 227.834C-39.8067 228.773 -39.9918 229.712 -40.1824 230.679C-40.4835 232.14 -40.7845 233.601 -41.0857 235.062C-41.506 237.113 -41.9169 239.166 -42.328 241.219C-43.0495 244.813 -43.7853 248.405 -44.5218 251.996C-44.9132 253.909 -45.3009 255.824 -45.6846 257.739C-45.8595 258.602 -46.0344 259.465 -46.2146 260.353C-46.4444 261.499 -46.4444 261.499 -46.6789 262.668C-47.1005 264.395 -47.1005 264.395 -47.8593 265.153C-49.3766 265.219 -50.8962 265.234 -52.415 265.227C-53.3369 265.224 -54.2588 265.222 -55.2086 265.219C-56.1794 265.213 -57.1502 265.207 -58.1504 265.2C-59.1241 265.197 -60.0979 265.193 -61.1011 265.19C-63.5163 265.181 -65.9315 265.168 -68.3467 265.153C-67.342 258.802 -66.1354 252.517 -64.7882 246.231C-64.4899 244.827 -64.4899 244.827 -64.1857 243.396C-63.6467 240.859 -63.1052 238.324 -62.5632 235.788C-61.9941 233.124 -61.4271 230.459 -60.8599 227.794C-59.909 223.327 -58.9566 218.861 -58.0031 214.395C-56.7799 208.666 -55.5591 202.936 -54.3391 197.207C-53.2874 192.267 -52.2347 187.328 -51.1818 182.389C-50.8444 180.806 -50.5071 179.223 -50.1697 177.64C-49.542 174.695 -48.9133 171.749 -48.2844 168.804C-48.098 167.929 -47.9115 167.054 -47.7194 166.152C-47.5482 165.351 -47.3769 164.55 -47.2005 163.724C-47.0521 163.029 -46.9037 162.333 -46.7508 161.617C-46.3892 159.98 -45.9996 158.356 -45.5829 156.732ZM-26.6131 164.314C-27.9029 170.291 -29.1893 176.269 -30.4715 182.248C-31.067 185.024 -31.6636 187.8 -32.2629 190.575C-32.8413 193.254 -33.4166 195.933 -33.9898 198.613C-34.209 199.634 -34.4292 200.656 -34.6506 201.678C-34.9606 203.109 -35.2663 204.541 -35.5719 205.974C-35.7471 206.789 -35.9224 207.603 -36.1029 208.443C-36.5653 210.702 -36.5653 210.702 -36.4774 213.596C-33.971 213.546 -31.9482 213.438 -29.9061 211.873C-24.3586 205.833 -22.8104 197.562 -21.0796 189.793C-20.733 188.247 -20.3703 186.705 -20.0063 185.163C-17.3414 174.919 -17.3414 174.919 -19.784 165.072C-22.0274 163.952 -24.1412 164.268 -26.6131 164.314Z" fill="#F6F6F6"/>
<path id="Vector_5" d="M354.537 155.689C355.282 155.671 356.027 155.652 356.794 155.633C362.032 155.612 366.366 156.476 370.994 159.007C375.434 163.443 376.241 168.073 376.305 174.17C376.006 177.152 375.422 180.039 374.791 182.966C374.619 183.807 374.447 184.647 374.27 185.513C373.696 188.306 373.104 191.094 372.511 193.883C372.196 195.39 371.883 196.898 371.57 198.405C370.354 204.25 369.11 210.089 367.853 215.926C367.262 218.67 366.678 221.416 366.096 224.162C365.637 226.323 365.173 228.482 364.707 230.641C364.386 232.136 364.07 233.631 363.754 235.126C360.069 252.104 360.069 252.104 354.3 258.329C353.729 258.959 353.729 258.959 353.147 259.602C347.212 265.403 339.708 266.177 331.774 266.242C331.107 266.25 330.44 266.258 329.753 266.266C324.323 266.193 319.566 265.177 314.938 262.262C310.963 258.173 310.11 253.531 310.179 248.067C310.367 244.909 311.01 241.882 311.683 238.797C311.831 238.093 311.979 237.389 312.131 236.663C312.617 234.359 313.113 232.057 313.61 229.755C313.954 228.143 314.297 226.532 314.641 224.92C315.355 221.572 316.073 218.225 316.794 214.879C317.687 210.719 318.555 206.555 319.413 202.388C320.064 199.231 320.725 196.077 321.389 192.923C321.701 191.431 322.009 189.938 322.312 188.444C326.737 166.723 326.737 166.723 334.823 160.727C335.445 160.363 336.066 159.998 336.706 159.623C337.321 159.252 337.936 158.882 338.57 158.5C343.842 155.93 348.784 155.697 354.537 155.689ZM350.079 164.219C346.276 169.092 345.495 175.868 344.244 181.825C344.09 182.548 343.935 183.272 343.776 184.017C343.272 186.383 342.772 188.75 342.272 191.117C341.92 192.774 341.568 194.432 341.216 196.089C340.48 199.552 339.747 203.015 339.015 206.478C338.08 210.908 337.139 215.337 336.196 219.765C335.469 223.184 334.744 226.602 334.021 230.021C333.675 231.654 333.328 233.287 332.98 234.92C332.495 237.204 332.013 239.488 331.532 241.772C331.318 242.774 331.318 242.774 331.099 243.797C329.256 250.801 329.256 250.801 330.351 257.571C330.742 258.071 331.133 258.571 331.536 259.087C333.973 258.884 335.117 258.524 336.943 256.86C340.115 251.683 341.097 245.289 342.363 239.407C342.519 238.694 342.675 237.982 342.835 237.248C343.343 234.918 343.847 232.587 344.35 230.255C344.704 228.62 345.058 226.985 345.412 225.35C346.151 221.933 346.887 218.515 347.622 215.097C348.56 210.733 349.51 206.371 350.462 202.009C351.196 198.637 351.922 195.262 352.647 191.888C352.993 190.279 353.343 188.671 353.695 187.064C354.188 184.812 354.67 182.557 355.15 180.301C355.295 179.648 355.441 178.995 355.591 178.323C356.555 173.708 357.125 169.023 356.577 164.314C356.076 163.813 355.575 163.313 355.059 162.797C352.03 162.499 352.03 162.499 350.079 164.219Z" fill="#F6F6F6"/>
<path id="Vector_6" d="M258.171 155.689C258.915 155.671 259.66 155.652 260.428 155.633C265.665 155.612 270 156.476 274.627 159.007C278.11 162.487 279.58 166.104 279.941 170.945C279.938 173.805 279.51 176.497 278.982 179.296C278.88 179.858 278.777 180.42 278.671 180.999C277.514 187.247 276.213 193.465 274.891 199.679C274.629 200.914 274.367 202.148 274.106 203.383C273.562 205.945 273.017 208.507 272.47 211.069C271.775 214.326 271.088 217.584 270.402 220.843C269.865 223.384 269.325 225.924 268.782 228.464C268.527 229.664 268.273 230.865 268.021 232.066C263.844 251.951 263.844 251.951 257.933 258.329C257.363 258.959 257.363 258.959 256.78 259.602C250.845 265.403 243.342 266.177 235.407 266.242C234.74 266.25 234.073 266.258 233.386 266.266C227.956 266.193 223.199 265.177 218.571 262.262C214.596 258.173 213.743 253.531 213.812 248.067C214 244.909 214.643 241.882 215.317 238.797C215.464 238.093 215.612 237.389 215.765 236.663C216.25 234.359 216.746 232.057 217.243 229.755C217.587 228.143 217.931 226.532 218.274 224.92C218.988 221.572 219.707 218.225 220.427 214.879C221.32 210.719 222.188 206.555 223.046 202.388C223.697 199.231 224.359 196.077 225.022 192.923C225.334 191.431 225.642 189.938 225.945 188.444C230.371 166.723 230.371 166.723 238.457 160.727C239.078 160.363 239.699 159.998 240.339 159.623C240.954 159.252 241.569 158.882 242.203 158.5C247.475 155.93 252.417 155.697 258.171 155.689ZM253.713 164.219C249.909 169.092 249.128 175.868 247.878 181.825C247.723 182.548 247.569 183.272 247.409 184.017C246.905 186.383 246.405 188.75 245.905 191.117C245.553 192.774 245.201 194.432 244.849 196.089C244.113 199.552 243.38 203.015 242.649 206.478C241.713 210.908 240.772 215.337 239.829 219.765C239.102 223.184 238.378 226.602 237.654 230.021C237.308 231.654 236.961 233.287 236.614 234.92C236.128 237.204 235.646 239.488 235.165 241.772C234.951 242.774 234.951 242.774 234.732 243.797C232.889 250.801 232.889 250.801 233.984 257.571C234.375 258.071 234.767 258.571 235.17 259.087C237.606 258.884 238.75 258.524 240.576 256.86C243.715 251.737 244.695 245.441 245.915 239.613C246.062 238.923 246.209 238.233 246.361 237.522C246.84 235.268 247.315 233.013 247.791 230.759C248.125 229.181 248.461 227.603 248.796 226.025C249.674 221.89 250.549 217.754 251.422 213.619C252.313 209.406 253.207 205.195 254.101 200.984C255.405 194.836 256.708 188.688 258.008 182.539C258.144 181.898 258.279 181.257 258.419 180.597C258.764 178.96 259.108 177.324 259.451 175.687C259.68 174.597 259.68 174.597 259.913 173.486C260.26 171.625 260.338 169.855 260.352 167.963C260.363 167.311 260.374 166.659 260.385 165.987C260.371 164.157 260.371 164.157 258.692 162.797C255.664 162.499 255.664 162.499 253.713 164.219Z" fill="#F6F6F6"/>
<path id="Vector_7" d="M91.7585 156.732C96.7665 156.732 101.775 156.732 106.934 156.732C107.002 168.839 106.75 180.895 106.297 192.992C106.231 194.818 106.164 196.644 106.098 198.47C105.961 202.262 105.821 206.054 105.679 209.845C105.499 214.687 105.323 219.528 105.149 224.37C105.013 228.126 104.875 231.883 104.737 235.639C104.671 237.424 104.606 239.21 104.542 240.995C104.451 243.489 104.358 245.982 104.264 248.475C104.225 249.56 104.225 249.56 104.186 250.668C103.999 255.532 103.583 260.29 103.14 265.153C96.3795 265.153 89.6187 265.153 82.653 265.153C82.653 259.329 82.6992 253.57 82.985 247.762C83.0148 247.075 83.0446 246.389 83.0754 245.681C83.2274 242.501 83.3989 239.445 84.1706 236.342C83.7461 236.351 83.3216 236.359 82.8842 236.368C77.2153 236.432 71.6079 236.039 65.9596 235.584C65.8403 236.061 65.7211 236.539 65.5983 237.032C64.034 243.046 61.9797 248.819 59.7944 254.633C59.4491 255.565 59.1038 256.498 58.7481 257.458C56.1989 264.291 56.1989 264.291 55.3365 265.153C53.9305 265.208 52.5226 265.216 51.1157 265.2C50.3478 265.193 49.58 265.187 48.7889 265.18C47.8983 265.166 47.8983 265.166 46.9897 265.153C48.5066 260.4 50.2423 255.784 52.162 251.18C52.4415 250.504 52.7209 249.829 53.0089 249.133C53.9246 246.922 54.8439 244.712 55.7633 242.502C56.4115 240.94 57.0596 239.377 57.7075 237.814C63.3522 224.211 69.0396 210.625 74.7417 197.046C76.9004 191.904 79.0542 186.761 81.2065 181.616C81.8437 180.094 82.4809 178.571 83.1182 177.048C84.0415 174.842 84.9647 172.636 85.8875 170.429C86.7305 168.413 87.5742 166.398 88.418 164.382C88.6695 163.781 88.9209 163.179 89.18 162.559C90.9133 158.422 90.9133 158.422 91.7585 156.732ZM85.6882 180.236C83.7337 185.68 81.781 191.124 79.8307 196.569C78.9249 199.098 78.0185 201.626 77.1106 204.154C76.0653 207.065 75.0227 209.977 73.9802 212.888C73.494 214.24 73.494 214.24 72.998 215.62C72.6943 216.469 72.3906 217.319 72.0777 218.194C71.8115 218.937 71.5452 219.679 71.2709 220.444C70.4304 222.937 69.718 225.472 68.9947 228.002C76.5068 227.626 76.5068 227.626 84.1706 227.244C84.7267 225.021 85.0471 223.361 85.1548 221.136C85.1851 220.538 85.2155 219.94 85.2467 219.323C85.2906 218.359 85.2906 218.359 85.3354 217.375C85.3844 216.365 85.3844 216.365 85.4343 215.334C85.5027 213.904 85.5695 212.474 85.635 211.043C85.7338 208.897 85.8388 206.751 85.9445 204.605C86.3332 196.474 86.5451 188.376 86.447 180.236C86.1965 180.236 85.9461 180.236 85.6882 180.236Z" fill="#F6F6F6"/>
<path id="Vector_8" d="M289.803 156.732C296.564 156.732 303.325 156.732 310.29 156.732C309.437 164.409 309.437 164.409 308.691 167.917C308.441 169.108 308.441 169.108 308.185 170.323C308.003 171.171 307.822 172.018 307.634 172.891C307.442 173.802 307.249 174.713 307.051 175.651C306.526 178.127 305.999 180.603 305.471 183.079C304.917 185.674 304.368 188.27 303.818 190.866C302.778 195.772 301.735 200.677 300.69 205.582C299.5 211.171 298.314 216.76 297.128 222.349C294.691 233.838 292.248 245.326 289.803 256.813C291.094 256.649 291.094 256.649 292.411 256.481C293.565 256.339 294.719 256.197 295.873 256.055C296.72 255.946 296.72 255.946 297.583 255.835C301.343 255.378 304.985 255.228 308.773 255.296C308.021 258.549 307.27 261.802 306.496 265.153C293.475 265.153 280.455 265.153 267.039 265.153C267.893 257.476 267.893 257.476 268.691 253.719C268.869 252.87 269.048 252.021 269.232 251.146C269.524 249.782 269.524 249.782 269.822 248.392C270.028 247.417 270.235 246.442 270.447 245.438C271.008 242.784 271.574 240.131 272.14 237.478C272.733 234.697 273.323 231.914 273.913 229.132C274.903 224.467 275.896 219.803 276.891 215.139C278.041 209.744 279.187 204.349 280.332 198.953C281.434 193.757 282.538 188.561 283.644 183.365C284.114 181.155 284.583 178.945 285.052 176.735C285.706 173.656 286.362 170.578 287.02 167.5C287.214 166.58 287.409 165.66 287.61 164.713C287.788 163.879 287.967 163.044 288.151 162.185C288.306 161.457 288.461 160.729 288.621 159.979C289.044 158.249 289.044 158.249 289.803 156.732Z" fill="#F6F6F6"/>
<path id="Vector_9" d="M118.316 209.047C129.584 209.047 140.852 209.047 152.462 209.047C151.703 216.629 151.703 216.629 150.185 224.211C138.667 224.211 127.148 224.211 115.281 224.211C116.282 219.207 117.284 214.203 118.316 209.047Z" fill="#F6F6F6"/>
</g>
<g id="Group 198">
<path id="Vector_10" d="M640.863 156.732C645.263 156.695 649.662 156.667 654.062 156.649C655.556 156.641 657.05 156.631 658.544 156.618C660.702 156.599 662.861 156.591 665.02 156.584C665.678 156.576 666.336 156.569 667.014 156.561C672.891 156.559 679.276 156.861 684.114 160.523C684.537 160.82 684.959 161.118 685.395 161.424C689.662 167.312 687.863 175.77 686.795 182.45C682.425 207.71 682.425 207.71 673.491 215.871C672.74 216.371 671.989 216.872 671.215 217.387C670.905 219.279 670.905 219.279 671.025 221.533C671.045 222.422 671.066 223.31 671.087 224.226C671.327 229.911 671.632 235.59 671.973 241.27C672.119 243.694 672.261 246.119 672.4 248.544C672.45 249.342 672.45 249.342 672.501 250.155C672.789 255.177 672.732 260.091 672.732 265.153C665.721 265.153 658.71 265.153 651.486 265.153C651.376 261.098 651.268 257.042 651.162 252.987C651.126 251.614 651.089 250.242 651.051 248.869C650.793 239.384 650.678 229.909 650.727 220.42C649.976 220.67 649.225 220.92 648.451 221.178C647.766 222.94 647.766 222.94 647.369 225.138C647.189 225.983 647.009 226.828 646.824 227.699C646.639 228.619 646.454 229.539 646.263 230.487C645.968 231.893 645.968 231.893 645.666 233.328C645.143 235.825 644.628 238.324 644.118 240.824C643.397 244.346 642.659 247.864 641.924 251.383C641.533 253.258 641.145 255.134 640.761 257.011C640.586 257.858 640.411 258.706 640.231 259.579C640.078 260.327 639.925 261.076 639.767 261.847C639.345 263.636 639.345 263.636 638.587 265.153C631.826 265.153 625.065 265.153 618.099 265.153C619.125 258.489 620.245 251.953 621.658 245.374C621.856 244.437 622.055 243.501 622.26 242.535C622.798 239.999 623.34 237.464 623.883 234.928C624.452 232.263 625.019 229.598 625.586 226.933C626.536 222.467 627.489 218.003 628.443 213.538C629.545 208.379 630.645 203.219 631.743 198.058C632.915 192.549 634.089 187.039 635.264 181.53C635.602 179.946 635.939 178.363 636.276 176.779C636.903 173.835 637.532 170.891 638.161 167.948C638.348 167.071 638.534 166.194 638.726 165.291C638.898 164.492 639.069 163.693 639.245 162.87C639.394 162.174 639.542 161.479 639.695 160.763C640.104 159.007 640.104 159.007 640.863 156.732ZM659.833 164.314C658.542 170.179 657.255 176.045 655.974 181.912C655.379 184.636 654.783 187.36 654.183 190.083C653.604 192.713 653.029 195.343 652.456 197.974C652.131 199.463 651.802 200.951 651.472 202.44C651.275 203.35 651.077 204.261 650.874 205.199C650.699 205.999 650.523 206.798 650.343 207.622C649.992 209.666 649.896 211.528 649.968 213.596C652.475 213.546 654.498 213.438 656.54 211.873C662.181 205.731 663.671 197.33 665.366 189.428C665.713 187.818 666.076 186.213 666.44 184.607C669.025 174.633 669.025 174.633 666.662 165.072C664.418 163.952 662.305 164.268 659.833 164.314Z" fill="#F6F6F6"/>
<path id="Vector_11" d="M580.919 156.732C585.318 156.695 589.718 156.667 594.118 156.649C595.612 156.641 597.106 156.631 598.599 156.618C600.758 156.599 602.917 156.591 605.075 156.584C605.733 156.576 606.391 156.569 607.069 156.561C612.854 156.56 619.473 156.796 624.17 160.523C627.924 164.483 628.071 167.635 628.052 172.961C627.895 176.463 627.266 179.872 626.636 183.316C626.498 184.078 626.361 184.84 626.219 185.625C621.924 208.903 621.924 208.903 612.788 216.629C612.037 217.004 612.037 217.004 611.27 217.387C611.378 220.767 611.489 224.148 611.602 227.528C611.619 228.03 611.636 228.533 611.653 229.051C611.852 234.977 612.085 240.896 612.456 246.814C612.838 252.937 612.844 259.018 612.788 265.153C605.777 265.153 598.765 265.153 591.542 265.153C591.291 250.391 591.041 235.629 590.783 220.42C590.032 220.67 589.28 220.92 588.506 221.178C587.821 222.976 587.821 222.976 587.424 225.219C587.155 226.513 587.155 226.513 586.88 227.834C586.695 228.773 586.51 229.712 586.319 230.679C586.018 232.14 585.717 233.601 585.416 235.062C584.995 237.113 584.585 239.166 584.173 241.219C583.452 244.813 582.716 248.405 581.98 251.996C581.588 253.909 581.201 255.824 580.817 257.739C580.642 258.602 580.467 259.465 580.287 260.353C580.057 261.499 580.057 261.499 579.823 262.668C579.401 264.395 579.401 264.395 578.642 265.153C577.125 265.219 575.605 265.234 574.086 265.227C573.165 265.224 572.243 265.222 571.293 265.219C570.322 265.213 569.351 265.207 568.351 265.2C567.377 265.197 566.404 265.193 565.4 265.19C562.985 265.181 560.57 265.168 558.155 265.153C559.159 258.802 560.366 252.517 561.713 246.231C562.012 244.827 562.012 244.827 562.316 243.396C562.855 240.859 563.396 238.324 563.938 235.788C564.507 233.124 565.074 230.459 565.642 227.794C566.592 223.327 567.545 218.861 568.498 214.395C569.722 208.666 570.942 202.936 572.162 197.207C573.214 192.267 574.267 187.328 575.32 182.389C575.657 180.806 575.994 179.223 576.332 177.64C576.959 174.695 577.588 171.749 578.217 168.804C578.403 167.929 578.59 167.054 578.782 166.152C578.953 165.351 579.125 164.55 579.301 163.724C579.449 163.029 579.598 162.333 579.751 161.617C580.112 159.98 580.502 158.356 580.919 156.732ZM599.888 164.314C598.599 170.291 597.312 176.269 596.03 182.248C595.434 185.024 594.838 187.8 594.239 190.575C593.66 193.254 593.085 195.933 592.512 198.613C592.293 199.634 592.072 200.656 591.851 201.678C591.541 203.109 591.235 204.541 590.93 205.974C590.754 206.789 590.579 207.603 590.399 208.443C589.936 210.702 589.936 210.702 590.024 213.596C592.53 213.546 594.553 213.438 596.595 211.873C602.143 205.833 603.691 197.562 605.422 189.793C605.768 188.247 606.131 186.705 606.495 185.163C609.16 174.919 609.16 174.919 606.717 165.072C604.474 163.952 602.36 164.268 599.888 164.314Z" fill="#F6F6F6"/>
<path id="Vector_12" d="M533.114 156.732C547.387 156.732 561.66 156.732 576.366 156.732C575.607 163.556 575.607 163.556 574.848 166.589C567.207 166.136 559.667 165.328 552.084 164.314C552.048 164.77 552.011 165.226 551.973 165.696C551.548 170.474 550.769 175.082 549.757 179.768C549.607 180.481 549.456 181.194 549.301 181.929C548.826 184.177 548.345 186.424 547.863 188.671C547.537 190.207 547.212 191.743 546.887 193.279C546.095 197.02 545.295 200.759 544.496 204.498C552.008 204.123 552.008 204.123 559.672 203.74C558.913 210.564 558.913 210.564 558.155 213.596C555.925 213.49 553.696 213.378 551.468 213.265C550.835 213.235 550.203 213.205 549.551 213.174C548.943 213.142 548.334 213.111 547.706 213.078C547.146 213.05 546.586 213.022 546.008 212.994C544.496 212.838 544.496 212.838 542.22 212.08C542.123 212.826 542.123 212.826 542.025 213.588C540.75 222.606 538.735 231.472 536.813 240.37C536.455 242.041 536.096 243.713 535.738 245.385C534.866 249.448 533.992 253.51 533.114 257.571C533.615 257.321 534.116 257.071 534.632 256.813C536.783 256.509 538.923 256.241 541.082 256.007C541.697 255.939 542.312 255.872 542.946 255.802C547.281 255.347 551.517 255.156 555.878 255.296C555.127 258.549 554.376 261.802 553.602 265.153C539.329 265.153 525.056 265.153 510.351 265.153C514.709 242.506 514.709 242.506 516.317 235.059C516.502 234.191 516.688 233.323 516.879 232.428C517.472 229.655 518.068 226.883 518.665 224.11C519.085 222.15 519.505 220.189 519.924 218.228C520.903 213.656 521.885 209.083 522.867 204.512C524.098 198.776 525.327 193.039 526.556 187.303C528.74 177.112 530.927 166.922 533.114 156.732Z" fill="#F6F6F6"/>
<path id="Vector_13" d="M473.928 156.732C492.708 156.732 511.488 156.732 530.838 156.732C530.079 164.314 530.079 164.314 528.561 167.347C525.937 166.988 523.313 166.623 520.689 166.257C519.942 166.155 519.194 166.053 518.424 165.948C517.71 165.847 516.996 165.747 516.261 165.644C515.601 165.553 514.941 165.461 514.262 165.367C512.627 165.072 512.627 165.072 511.109 164.314C511.023 165.25 510.936 166.185 510.847 167.148C510.347 171.623 509.413 175.981 508.465 180.38C508.274 181.28 508.083 182.181 507.885 183.109C507.364 185.559 506.84 188.009 506.315 190.458C505.764 193.027 505.217 195.597 504.669 198.166C503.75 202.474 502.829 206.782 501.906 211.089C500.838 216.07 499.775 221.052 498.713 226.034C497.691 230.834 496.666 235.633 495.639 240.432C495.203 242.473 494.767 244.513 494.332 246.554C493.726 249.397 493.117 252.239 492.507 255.082C492.326 255.93 492.146 256.779 491.96 257.654C491.711 258.809 491.711 258.809 491.457 259.988C491.313 260.66 491.169 261.332 491.021 262.024C490.622 263.636 490.622 263.636 489.863 265.153C483.102 265.153 476.341 265.153 469.375 265.153C470.402 259 471.5 252.924 472.807 246.833C472.992 245.962 473.177 245.09 473.368 244.192C473.767 242.318 474.166 240.444 474.567 238.57C475.2 235.608 475.83 232.645 476.46 229.681C477.682 223.937 478.907 218.192 480.132 212.448C481.696 205.11 483.26 197.77 484.821 190.431C485.549 187.009 486.279 183.588 487.01 180.168C487.388 178.388 487.767 176.609 488.146 174.829C488.321 174.012 488.496 173.196 488.676 172.354C488.833 171.612 488.991 170.871 489.153 170.106C489.291 169.46 489.429 168.813 489.571 168.147C489.909 166.605 489.909 166.605 489.863 165.072C484.104 165.823 478.344 166.574 472.411 167.347C473.169 159.765 473.169 159.765 473.928 156.732Z" fill="#F6F6F6"/>
</g>
</g>
<g id="Group 212">
<g id="Group 199">
<path id="Vector_14" d="M-13.475 16.0996C-6.71416 16.0996 0.04668 16.0996 7.01239 16.0996C6.00687 22.6303 4.92504 29.0416 3.54744 35.4896C3.27546 36.7759 3.27546 36.7759 2.99799 38.0882C2.61862 39.8793 2.23791 41.6702 1.8559 43.4607C1.26948 46.2114 0.688302 48.9631 0.10768 51.715C-0.26301 53.462 -0.633997 55.2089 -1.00531 56.9557C-1.26616 58.1912 -1.26616 58.1912 -1.53228 59.4516C-1.7755 60.5877 -1.7755 60.5877 -2.02364 61.7467C-2.23667 62.7477 -2.23667 62.7477 -2.454 63.7689C-2.85191 65.3816 -2.85191 65.3816 -3.6107 66.898C-3.10696 66.7739 -2.60322 66.6497 -2.08422 66.5219C0.660417 66.0594 3.33878 66.058 6.11133 66.0924C6.63707 66.0958 7.16282 66.0993 7.7045 66.1028C8.99141 66.1117 10.2783 66.1253 11.5651 66.1398C11.6521 65.5928 11.7391 65.0457 11.8287 64.4821C12.7492 58.8138 13.8359 53.1986 15.0301 47.5821C15.2114 46.7234 15.3927 45.8648 15.5795 44.9802C15.9593 43.1846 16.34 41.3892 16.7216 39.5941C17.3074 36.8365 17.8888 34.0781 18.4699 31.3196C18.8406 29.5692 19.2116 27.8188 19.5829 26.0686C19.8437 24.8295 19.8437 24.8295 20.1098 23.5655C20.353 22.4257 20.353 22.4257 20.6012 21.2629C20.7432 20.5933 20.8852 19.9237 21.0315 19.2339C21.4294 17.616 21.4294 17.616 22.1882 16.0996C28.9491 16.0996 35.7099 16.0996 42.6756 16.0996C41.822 24.6294 41.822 24.6294 41.0241 28.3875C40.8454 29.239 40.6667 30.0904 40.4826 30.9676C40.2878 31.875 40.0931 32.7824 39.8924 33.7172C39.6863 34.6933 39.4802 35.6693 39.2678 36.6749C38.7072 39.3289 38.1415 41.9817 37.5747 44.6344C36.981 47.4162 36.3916 50.1988 35.8015 52.9813C34.8118 57.6451 33.8189 62.3081 32.8239 66.9707C31.6728 72.3655 30.5266 77.7613 29.3831 83.1577C28.2817 88.3546 27.1772 93.5508 26.071 98.7467C25.6004 100.957 25.131 103.168 24.6624 105.379C24.01 108.456 23.3528 111.533 22.6951 114.609C22.5003 115.53 22.3056 116.451 22.1049 117.401C21.9262 118.233 21.7475 119.065 21.5634 119.922C21.3309 121.013 21.3309 121.013 21.0937 122.127C20.6707 123.762 20.6707 123.762 19.9119 124.52C18.3945 124.586 16.8749 124.601 15.3561 124.594C14.4343 124.592 13.5124 124.589 12.5625 124.587C11.5918 124.58 10.621 124.574 9.62074 124.567C8.64701 124.564 7.67328 124.561 6.67005 124.557C4.25482 124.548 1.83966 124.536 -0.57553 124.52C-0.0638548 118.817 1.02748 113.333 2.24919 107.742C2.45023 106.809 2.65126 105.877 2.85838 104.916C3.3886 102.459 3.92173 100.002 4.45633 97.5458C5.00307 95.0302 5.54591 92.5138 6.0891 89.9975C7.15209 85.0769 8.2193 80.1572 9.28877 75.238C4.53114 74.9878 -0.226485 74.7376 -5.12828 74.4798C-5.33173 75.5139 -5.53519 76.5479 -5.7448 77.6133C-7.6811 87.3968 -9.68503 97.1651 -11.7359 106.925C-12.01 108.23 -12.2837 109.535 -12.5569 110.839C-12.9445 112.689 -13.3339 114.538 -13.724 116.387C-13.8408 116.946 -13.9577 117.504 -14.078 118.079C-14.5433 120.275 -15.0403 122.389 -15.7514 124.52C-22.5122 124.52 -29.2731 124.52 -36.2388 124.52C-35.3851 116.843 -35.3851 116.843 -34.7568 113.9C-34.6155 113.23 -34.4742 112.56 -34.3286 111.87C-34.1753 111.16 -34.022 110.45 -33.864 109.718C-33.701 108.95 -33.538 108.182 -33.37 107.391C-32.8327 104.863 -32.2906 102.337 -31.7483 99.8109C-31.3687 98.0321 -30.9894 96.2532 -30.6104 94.4743C-29.8145 90.7424 -29.0163 87.0109 -28.2164 83.2799C-27.2038 78.5563 -26.1955 73.8318 -25.1888 69.1069C-24.4043 65.4266 -23.6181 61.7466 -22.8313 58.0667C-22.4598 56.3288 -22.0887 54.5908 -21.718 52.8527C-19.0966 40.5708 -16.3255 28.3306 -13.475 16.0996Z" fill="#F6F6F6"/>
<path id="Vector_15" d="M202.022 16.0995C206.651 16.043 211.281 16.0018 215.911 15.9746C217.484 15.9632 219.056 15.9477 220.629 15.9279C222.899 15.9001 225.168 15.8874 227.438 15.8774C228.481 15.8598 228.481 15.8598 229.544 15.8418C235.086 15.8404 240.299 16.6877 244.799 20.1274C249.461 24.8974 250.029 30.1346 249.958 36.5168C249.722 40.6694 248.903 44.68 248.071 48.7488C247.876 49.7246 247.681 50.7004 247.48 51.7057C246.763 55.2575 246.019 58.8032 245.273 62.3488C245.117 63.0922 244.961 63.8357 244.8 64.6017C243.748 69.6101 242.681 74.6152 241.6 79.6174C241.238 81.2953 240.878 82.9736 240.521 84.6525C234.398 113.322 234.398 113.322 223.268 120.729C216.336 124.33 209.387 124.643 201.71 124.594C201.063 124.593 200.416 124.592 199.749 124.591C197.709 124.587 195.668 124.577 193.627 124.567C192.233 124.564 190.838 124.56 189.444 124.557C186.048 124.549 182.653 124.536 179.258 124.52C179.774 118.828 180.844 113.343 182.041 107.759C182.247 106.784 182.453 105.809 182.666 104.805C183.227 102.151 183.792 99.498 184.359 96.8452C184.952 94.0637 185.542 91.2814 186.132 88.4993C187.122 83.8343 188.115 79.1699 189.11 74.5058C190.26 69.1113 191.406 63.716 192.55 58.3202C193.652 53.1239 194.757 47.9281 195.862 42.7325C196.333 40.5225 196.802 38.3124 197.271 36.1021C197.924 33.0231 198.581 29.9449 199.238 26.8668C199.433 25.9471 199.628 25.0275 199.829 24.08C200.007 23.2457 200.186 22.4113 200.37 21.5517C200.525 20.824 200.68 20.0962 200.84 19.3464C201.263 17.6159 201.263 17.6159 202.022 16.0995ZM221.75 23.6813C219.11 33.7783 216.922 43.9563 214.767 54.1657C214.397 55.9108 214.027 57.6559 213.657 59.4009C212.888 63.0308 212.12 66.661 211.354 70.2914C210.37 74.9491 209.383 79.6059 208.394 84.2625C207.632 87.853 206.872 91.4441 206.113 95.0352C205.75 96.7539 205.385 98.4725 205.02 100.191C204.513 102.58 204.009 104.97 203.506 107.36C203.354 108.07 203.203 108.78 203.047 109.511C202.843 110.485 202.843 110.485 202.635 111.478C202.456 112.324 202.456 112.324 202.274 113.186C201.958 114.787 201.958 114.787 202.022 116.938C206.816 117.41 206.816 117.41 211.032 115.374C214.347 110.796 215.5 105.909 216.642 100.467C216.798 99.7467 216.954 99.026 217.114 98.2834C217.625 95.913 218.127 93.541 218.629 91.1687C218.983 89.5115 219.337 87.8544 219.691 86.1973C220.431 82.7279 221.167 79.2576 221.901 75.7867C222.838 71.3516 223.788 66.9191 224.741 62.4872C225.475 59.0663 226.201 55.644 226.926 52.2211C227.273 50.5868 227.622 48.9531 227.974 47.3198C228.467 45.0302 228.949 42.7386 229.429 40.4464C229.574 39.7801 229.72 39.1138 229.87 38.4274C230.767 34.0762 231.429 29.6384 230.856 25.1977C229.481 23.4969 229.481 23.4969 227.53 23.5333C226.5 23.5597 226.5 23.5597 225.449 23.5866C224.216 23.6182 222.983 23.6498 221.75 23.6813Z" fill="#F6F6F6"/>
<path id="Vector_16" d="M170.39 15.0566C171.135 15.0381 171.88 15.0195 172.647 15.0004C177.884 14.9796 182.219 15.8432 186.846 18.3737C191.287 22.8105 192.094 27.4401 192.158 33.5374C191.858 36.5189 191.275 39.4061 190.643 42.3335C190.471 43.174 190.3 44.0144 190.123 44.8803C189.549 47.6729 188.957 50.4615 188.364 53.2502C188.049 54.7573 187.735 56.2647 187.422 57.7722C186.207 63.6176 184.962 69.4565 183.706 75.2931C183.115 78.0375 182.531 80.7834 181.949 83.5296C181.489 85.69 181.025 87.8494 180.56 90.0086C180.239 91.5028 179.923 92.998 179.607 94.4932C175.922 111.471 175.922 111.471 170.153 117.696C169.582 118.326 169.582 118.326 169 118.969C163.064 124.77 155.561 125.544 147.626 125.609C146.959 125.617 146.293 125.625 145.606 125.633C140.176 125.56 135.418 124.544 130.79 121.629C126.815 117.54 125.962 112.898 126.031 107.434C126.22 104.276 126.863 101.249 127.536 98.1638C127.684 97.4598 127.831 96.7558 127.984 96.0304C128.47 93.726 128.965 91.4239 129.462 89.1218C129.806 87.5105 130.15 85.8991 130.493 84.2876C131.207 80.9396 131.926 77.5925 132.647 74.2458C133.539 70.0861 134.407 65.9218 135.265 61.7547C135.916 58.5984 136.578 55.4443 137.241 52.2905C137.553 50.7983 137.861 49.3053 138.165 47.8114C142.59 26.09 142.59 26.09 150.676 20.0944C151.297 19.7299 151.918 19.3653 152.558 18.9897C153.173 18.6193 153.789 18.2489 154.423 17.8673C159.694 15.2975 164.637 15.0641 170.39 15.0566ZM165.932 23.5862C162.128 28.4587 161.347 35.2349 160.097 41.1922C159.942 41.9156 159.788 42.6391 159.629 43.3845C159.124 45.7503 158.624 48.1171 158.125 50.484C157.773 52.1416 157.42 53.7991 157.068 55.4565C156.333 58.9191 155.599 62.382 154.868 65.8454C153.932 70.2752 152.991 74.704 152.049 79.1324C151.322 82.5507 150.597 85.9696 149.873 89.3886C149.527 91.0216 149.18 92.6545 148.833 94.2873C148.348 96.5707 147.865 98.8548 147.384 101.139C147.17 102.141 147.17 102.141 146.952 103.164C145.108 110.168 145.108 110.168 146.203 116.938C146.595 117.438 146.986 117.939 147.389 118.454C149.825 118.251 150.969 117.891 152.795 116.227C155.967 111.05 156.95 104.657 158.216 98.7741C158.371 98.0616 158.527 97.3492 158.688 96.6152C159.196 94.285 159.7 91.9538 160.202 89.6223C160.556 87.9873 160.91 86.3522 161.264 84.7172C162.003 81.3 162.74 77.8821 163.474 74.464C164.413 70.0998 165.362 65.7379 166.314 61.3765C167.048 58.0039 167.775 54.6295 168.499 51.2547C168.846 49.6464 169.195 48.0386 169.548 46.4315C170.041 44.1788 170.523 41.9239 171.002 39.6682C171.148 39.0153 171.293 38.3624 171.443 37.6898C172.408 33.0751 172.977 28.3906 172.429 23.681C171.928 23.1806 171.427 22.6802 170.911 22.1646C167.883 21.8661 167.883 21.8661 165.932 23.5862Z" fill="#F6F6F6"/>
<path id="Vector_17" d="M74.0231 15.0566C74.768 15.0381 75.5128 15.0195 76.2802 15.0004C81.5175 14.9796 85.8521 15.8432 90.4794 18.3737C93.9622 21.8537 95.4322 25.471 95.7935 30.3126C95.7906 33.1725 95.3621 35.864 94.8349 38.6631C94.7321 39.2252 94.6293 39.7873 94.5234 40.3665C93.3663 46.6142 92.0659 52.8317 90.7432 59.0462C90.4815 60.2808 90.2198 61.5155 89.9582 62.7502C89.4146 65.3124 88.8691 67.8742 88.3225 70.4358C87.6279 73.6929 86.9402 76.9515 86.2541 80.2104C85.718 82.7513 85.1771 85.2912 84.6349 87.8308C84.3794 89.0313 84.1256 90.2321 83.8737 91.4333C79.6963 111.318 79.6963 111.318 73.786 117.696C73.2153 118.326 73.2153 118.326 72.633 118.969C66.6975 124.77 59.1943 125.544 51.2593 125.609C50.5926 125.617 49.9259 125.625 49.239 125.633C43.809 125.56 39.0517 124.544 34.4236 121.629C30.4484 117.54 29.5957 112.898 29.6644 107.434C29.853 104.276 30.4959 101.249 31.1691 98.1638C31.3169 97.4598 31.4648 96.7558 31.6171 96.0304C32.1029 93.726 32.5988 91.4239 33.0958 89.1218C33.4397 87.5105 33.7833 85.8991 34.1265 84.2876C34.8407 80.9396 35.5593 77.5925 36.2799 74.2458C37.1727 70.0861 38.0407 65.9218 38.8984 61.7547C39.5495 58.5984 40.2111 55.4443 40.8747 52.2905C41.1866 50.7983 41.4944 49.3053 41.7979 47.8114C46.2231 26.09 46.2231 26.09 54.3093 20.0944C54.9304 19.7299 55.5516 19.3653 56.1915 18.9897C56.8067 18.6193 57.422 18.2489 58.0559 17.8673C63.3276 15.2975 68.2699 15.0641 74.0231 15.0566ZM69.5652 23.5862C65.7616 28.4587 64.9808 35.2349 63.7301 41.1922C63.5756 41.9156 63.4211 42.6391 63.2619 43.3845C62.7574 45.7503 62.2575 48.1171 61.758 50.484C61.406 52.1416 61.0538 53.7991 60.7014 55.4565C59.966 58.9191 59.2328 62.382 58.5012 65.8454C57.5654 70.2752 56.6244 74.704 55.6819 79.1324C54.9548 82.5507 54.2302 85.9696 53.5064 89.3886C53.1604 91.0216 52.8137 92.6545 52.4663 94.2873C51.9809 96.5707 51.4987 98.8548 51.0174 101.139C50.8034 102.141 50.8034 102.141 50.585 103.164C48.7416 110.168 48.7416 110.168 49.8366 116.938C50.2279 117.438 50.6191 117.939 51.0222 118.454C53.4586 118.251 54.6024 117.891 56.4286 116.227C59.5675 111.104 60.5475 104.808 61.7672 98.9803C61.9143 98.2901 62.0615 97.6 62.2131 96.8889C62.6928 94.6352 63.168 92.3805 63.6431 90.1258C63.978 88.5478 64.3132 86.9698 64.6486 85.3919C65.5268 81.2571 66.4012 77.1215 67.2748 72.9857C68.1652 68.7736 69.0596 64.5622 69.9535 60.3508C71.2577 54.203 72.5608 48.0549 73.8605 41.9061C73.9961 41.2652 74.1317 40.6244 74.2714 39.9641C74.617 38.3276 74.9608 36.6908 75.3036 35.0538C75.5321 33.9646 75.5321 33.9646 75.7652 32.8535C76.1129 30.9924 76.1903 29.2221 76.2046 27.3298C76.2154 26.6779 76.2262 26.026 76.2372 25.3543C76.2237 23.5238 76.2237 23.5238 74.5448 22.1646C71.5163 21.8661 71.5163 21.8661 69.5652 23.5862Z" fill="#F6F6F6"/>
<path id="Vector_18" d="M105.655 16.0996C112.416 16.0996 119.177 16.0996 126.143 16.0996C125.289 23.7762 125.289 23.7762 124.544 27.2842C124.293 28.4753 124.293 28.4753 124.038 29.6905C123.856 30.538 123.674 31.3854 123.487 32.2586C123.294 33.1692 123.102 34.0798 122.903 35.018C122.379 37.4946 121.852 39.9706 121.323 42.4464C120.77 45.0414 120.22 47.6371 119.671 50.2328C118.631 55.139 117.587 60.0444 116.543 64.9496C115.353 70.5379 114.167 76.1269 112.981 81.716C110.543 93.2049 108.101 104.693 105.655 116.18C106.947 116.016 106.947 116.016 108.264 115.848C109.418 115.706 110.572 115.564 111.726 115.422C112.572 115.313 112.572 115.313 113.436 115.203C117.196 114.745 120.838 114.595 124.625 114.664C123.874 117.916 123.123 121.169 122.349 124.52C109.328 124.52 96.3071 124.52 82.8916 124.52C83.7453 116.843 83.7453 116.843 84.5431 113.087C84.7218 112.237 84.9006 111.388 85.0847 110.513C85.3768 109.15 85.3768 109.15 85.6748 107.759C85.8809 106.784 86.0871 105.809 86.2994 104.805C86.8608 102.151 87.4262 99.4982 87.9926 96.8453C88.5858 94.0638 89.1755 91.2815 89.7657 88.4994C90.756 83.8344 91.7488 79.17 92.7433 74.5059C93.8935 69.1114 95.0399 63.7161 96.1842 58.3203C97.2862 53.124 98.3906 47.9282 99.4962 42.7326C99.9665 40.5226 100.436 38.3125 100.905 36.1022C101.558 33.0233 102.215 29.945 102.872 26.8669C103.067 25.9473 103.262 25.0276 103.462 24.0801C103.641 23.2458 103.82 22.4114 104.004 21.5519C104.159 20.8241 104.314 20.0963 104.474 19.3465C104.897 17.616 104.897 17.616 105.655 16.0996Z" fill="#F6F6F6"/>
</g>
<g id="Group 200">
<path id="Vector_19" d="M613.026 16.0996C619.787 16.0996 626.548 16.0996 633.514 16.0996C632.508 22.6303 631.427 29.0416 630.049 35.4896C629.777 36.7759 629.777 36.7759 629.499 38.0882C629.12 39.8793 628.739 41.6702 628.357 43.4607C627.771 46.2114 627.19 48.9631 626.609 51.715C626.238 53.462 625.867 55.2089 625.496 56.9557C625.235 58.1912 625.235 58.1912 624.969 59.4516C624.726 60.5877 624.726 60.5877 624.478 61.7467C624.265 62.7477 624.265 62.7477 624.047 63.7689C623.65 65.3816 623.65 65.3816 622.891 66.898C623.395 66.7739 623.898 66.6497 624.417 66.5219C627.162 66.0594 629.84 66.058 632.613 66.0924C633.139 66.0958 633.664 66.0993 634.206 66.1028C635.493 66.1117 636.78 66.1253 638.067 66.1398C638.154 65.5928 638.241 65.0457 638.33 64.4821C639.251 58.8138 640.337 53.1986 641.532 47.5821C641.713 46.7234 641.894 45.8648 642.081 44.9802C642.461 43.1846 642.841 41.3892 643.223 39.5941C643.809 36.8365 644.39 34.0781 644.971 31.3196C645.342 29.5692 645.713 27.8188 646.084 26.0686C646.345 24.8295 646.345 24.8295 646.611 23.5655C646.855 22.4257 646.855 22.4257 647.103 21.2629C647.245 20.5933 647.387 19.9237 647.533 19.2339C647.931 17.616 647.931 17.616 648.69 16.0996C655.451 16.0996 662.211 16.0996 669.177 16.0996C668.323 24.6294 668.323 24.6294 667.526 28.3875C667.347 29.239 667.168 30.0904 666.984 30.9676C666.789 31.875 666.595 32.7824 666.394 33.7172C666.188 34.6933 665.982 35.6693 665.769 36.6749C665.209 39.3289 664.643 41.9817 664.076 44.6344C663.482 47.4162 662.893 50.1988 662.303 52.9813C661.313 57.6451 660.32 62.3081 659.325 66.9707C658.174 72.3655 657.028 77.7613 655.885 83.1577C654.783 88.3546 653.679 93.5508 652.572 98.7467C652.102 100.957 651.632 103.168 651.164 105.379C650.511 108.456 649.854 111.533 649.197 114.609C649.002 115.53 648.807 116.451 648.606 117.401C648.428 118.233 648.249 119.065 648.065 119.922C647.832 121.013 647.832 121.013 647.595 122.127C647.172 123.762 647.172 123.762 646.413 124.52C644.896 124.586 643.376 124.601 641.858 124.594C640.936 124.592 640.014 124.589 639.064 124.587C638.093 124.58 637.122 124.574 636.122 124.567C635.148 124.564 634.175 124.561 633.172 124.557C630.756 124.548 628.341 124.536 625.926 124.52C626.438 118.817 627.529 113.333 628.751 107.742C628.952 106.809 629.153 105.877 629.36 104.916C629.89 102.459 630.423 100.002 630.958 97.5458C631.505 95.0302 632.047 92.5138 632.591 89.9975C633.654 85.0769 634.721 80.1572 635.79 75.238C631.033 74.9878 626.275 74.7376 621.373 74.4798C621.17 75.5139 620.966 76.5479 620.757 77.6133C618.82 87.3968 616.816 97.1651 614.766 106.925C614.491 108.23 614.218 109.535 613.945 110.839C613.557 112.689 613.168 114.538 612.777 116.387C612.661 116.946 612.544 117.504 612.423 118.079C611.958 120.275 611.461 122.389 610.75 124.52C603.989 124.52 597.228 124.52 590.263 124.52C591.116 116.843 591.116 116.843 591.745 113.9C591.886 113.23 592.027 112.56 592.173 111.87C592.326 111.16 592.479 110.45 592.637 109.718C592.8 108.95 592.963 108.182 593.131 107.391C593.669 104.863 594.211 102.337 594.753 99.8109C595.133 98.0321 595.512 96.2532 595.891 94.4743C596.687 90.7424 597.485 87.0109 598.285 83.2799C599.298 78.5563 600.306 73.8318 601.313 69.1069C602.097 65.4266 602.883 61.7466 603.67 58.0667C604.042 56.3288 604.413 54.5908 604.783 52.8527C607.405 40.5708 610.176 28.3306 613.026 16.0996Z" fill="#F6F6F6"/>
<path id="Vector_20" d="M456.715 16.0995C461.115 16.0618 465.515 16.0344 469.915 16.0162C471.409 16.0087 472.902 15.9983 474.396 15.9851C476.555 15.9666 478.714 15.9581 480.872 15.9515C481.53 15.9436 482.188 15.9358 482.866 15.9277C488.744 15.9267 495.128 16.228 499.967 19.8905C500.389 20.1876 500.812 20.4847 501.247 20.7908C505.515 26.6794 503.716 35.1372 502.648 41.8167C498.277 67.0769 498.277 67.0769 489.344 75.238C488.592 75.7384 487.841 76.2388 487.067 76.7543C486.757 78.6465 486.757 78.6465 486.877 80.9006C486.898 81.7891 486.919 82.6775 486.94 83.5928C487.18 89.2779 487.485 94.9572 487.826 100.637C487.971 103.062 488.113 105.486 488.253 107.911C488.303 108.709 488.303 108.709 488.353 109.523C488.642 114.545 488.585 119.458 488.585 124.52C481.573 124.52 474.562 124.52 467.339 124.52C467.229 120.465 467.12 116.409 467.014 112.354C466.978 110.982 466.941 109.609 466.904 108.237C466.645 98.7508 466.531 89.2763 466.58 79.7871C465.829 80.0373 465.077 80.2875 464.303 80.5452C463.618 82.3068 463.618 82.3068 463.221 84.5048C463.041 85.3499 462.862 86.195 462.677 87.0657C462.492 87.9858 462.307 88.9058 462.116 89.8537C461.82 91.2603 461.82 91.2603 461.519 92.6954C460.995 95.1925 460.481 97.6912 459.97 100.191C459.249 103.713 458.512 107.232 457.777 110.751C457.386 112.626 456.998 114.501 456.614 116.378C456.439 117.225 456.264 118.073 456.084 118.946C455.931 119.695 455.777 120.443 455.619 121.214C455.198 123.004 455.198 123.004 454.439 124.52C447.678 124.52 440.917 124.52 433.952 124.52C434.978 117.856 436.098 111.32 437.51 104.742C437.709 103.805 437.908 102.868 438.113 101.902C438.651 99.3662 439.193 96.8307 439.735 94.2954C440.305 91.6306 440.871 88.9652 441.438 86.2998C442.389 81.8347 443.341 77.37 444.295 72.9056C445.398 67.7461 446.497 62.5859 447.595 57.4253C448.767 51.9157 449.942 46.4065 451.117 40.8975C451.454 39.3136 451.791 37.7297 452.129 36.1457C452.755 33.2018 453.385 30.2584 454.014 27.315C454.2 26.4383 454.387 25.5615 454.579 24.6583C454.75 23.8592 454.921 23.0601 455.098 22.2368C455.246 21.5416 455.395 20.8465 455.548 20.1302C455.957 18.3741 455.957 18.3741 456.715 16.0995ZM475.685 23.6814C474.394 29.5462 473.108 35.4119 471.827 41.2789C471.232 44.0032 470.635 46.7273 470.035 49.4506C469.456 52.0799 468.881 54.71 468.309 57.3408C467.983 58.8301 467.654 60.3187 467.325 61.8071C467.127 62.7176 466.93 63.6281 466.726 64.5662C466.551 65.3659 466.376 66.1656 466.195 66.9896C465.845 69.0336 465.748 70.8953 465.821 72.9634C468.327 72.9133 470.35 72.8049 472.392 71.2397C478.033 65.0985 479.523 56.6972 481.219 48.7948C481.566 47.1855 481.928 45.5802 482.292 43.9747C484.878 34 484.878 34 482.514 24.4396C480.271 23.3187 478.157 23.6356 475.685 23.6814Z" fill="#F6F6F6"/>
<path id="Vector_21" d="M396.771 16.0995C401.171 16.0618 405.57 16.0344 409.97 16.0162C411.464 16.0087 412.958 15.9983 414.452 15.9851C416.611 15.9666 418.769 15.9581 420.928 15.9515C421.586 15.9436 422.244 15.9358 422.922 15.9277C428.707 15.9267 435.325 16.1635 440.022 19.8905C443.777 23.8502 443.924 27.0017 443.904 32.3283C443.747 35.8307 443.119 39.2396 442.488 42.6834C442.351 43.4454 442.213 44.2073 442.072 44.9924C437.776 68.2701 437.776 68.2701 428.64 75.9961C427.889 76.3714 427.889 76.3714 427.123 76.7543C427.231 80.1347 427.342 83.5149 427.455 86.8951C427.472 87.3977 427.488 87.9003 427.505 88.4182C427.705 94.3439 427.937 100.264 428.308 106.181C428.69 112.304 428.696 118.386 428.64 124.52C421.629 124.52 414.618 124.52 407.394 124.52C407.144 109.758 406.893 94.9963 406.635 79.7871C405.884 80.0373 405.133 80.2875 404.359 80.5453C403.673 82.3434 403.673 82.3434 403.277 84.5864C403.007 85.8805 403.007 85.8805 402.732 87.2008C402.547 88.1398 402.362 89.0788 402.172 90.0463C401.871 91.5071 401.569 92.968 401.268 94.4288C400.848 96.4802 400.437 98.5334 400.026 100.587C399.304 104.181 398.569 107.772 397.832 111.363C397.441 113.276 397.053 115.191 396.669 117.106C396.494 117.969 396.32 118.832 396.139 119.721C395.91 120.866 395.91 120.866 395.675 122.035C395.254 123.762 395.254 123.762 394.495 124.52C392.977 124.586 391.458 124.601 389.939 124.594C389.017 124.592 388.095 124.589 387.145 124.587C386.175 124.58 385.204 124.574 384.204 124.567C383.23 124.564 382.256 124.561 381.253 124.557C378.838 124.548 376.423 124.535 374.007 124.52C375.012 118.169 376.219 111.884 377.566 105.598C377.864 104.195 377.864 104.195 378.168 102.763C378.707 100.227 379.249 97.691 379.791 95.1555C380.36 92.4909 380.927 89.8259 381.494 87.1609C382.445 82.6945 383.397 78.2285 384.351 73.7627C385.574 68.0334 386.795 62.3037 388.015 56.5737C389.067 51.6345 390.119 46.6955 391.172 41.7565C391.51 40.1734 391.847 38.5903 392.184 37.0073C392.812 34.0618 393.441 31.1165 394.07 28.1713C394.256 27.2961 394.442 26.4209 394.635 25.5192C394.806 24.718 394.977 23.9168 395.153 23.0913C395.302 22.3958 395.45 21.7004 395.603 20.9838C395.965 19.3474 396.354 17.7227 396.771 16.0995ZM415.741 23.6814C414.451 29.6584 413.165 35.6361 411.882 41.6147C411.287 44.3909 410.69 47.1667 410.091 49.9421C409.513 52.6207 408.937 55.3 408.364 57.9797C408.145 59.0016 407.925 60.0234 407.703 61.0448C407.393 62.4762 407.088 63.9085 406.782 65.3408C406.607 66.1557 406.432 66.9706 406.251 67.8102C405.789 70.0696 405.789 70.0696 405.877 72.9634C408.383 72.9133 410.406 72.8049 412.448 71.2397C417.995 65.2005 419.544 56.9295 421.274 49.1604C421.621 47.6141 421.984 46.0722 422.348 44.53C425.013 34.2864 425.013 34.2864 422.57 24.4396C420.327 23.3187 418.213 23.6356 415.741 23.6814Z" fill="#F6F6F6"/>
<path id="Vector_22" d="M534.113 16.0996C539.121 16.0996 544.129 16.0996 549.288 16.0996C549.356 28.206 549.104 40.2623 548.651 52.3592C548.585 54.1852 548.518 56.0113 548.452 57.8373C548.315 61.6291 548.175 65.4207 548.033 69.2123C547.853 74.0538 547.677 78.8954 547.503 83.7371C547.367 87.4935 547.229 91.2499 547.091 95.0062C547.025 96.7916 546.96 98.5771 546.896 100.363C546.805 102.856 546.712 105.349 546.618 107.842C546.579 108.928 546.579 108.928 546.54 110.035C546.353 114.899 545.937 119.657 545.494 124.52C538.734 124.52 531.973 124.52 525.007 124.52C525.007 118.696 525.053 112.937 525.339 107.129C525.369 106.443 525.399 105.756 525.429 105.049C525.581 101.869 525.753 98.8126 526.525 95.709C526.1 95.7178 525.676 95.7266 525.238 95.7357C519.569 95.7994 513.962 95.4062 508.314 94.9508C508.194 95.4286 508.075 95.9064 507.952 96.3987C506.388 102.413 504.334 108.186 502.148 114C501.803 114.933 501.458 115.865 501.102 116.826C498.553 123.658 498.553 123.658 497.69 124.52C496.285 124.575 494.877 124.584 493.47 124.567C492.702 124.561 491.934 124.554 491.143 124.547C490.252 124.534 490.252 124.534 489.344 124.52C490.861 119.767 492.596 115.151 494.516 110.547C494.795 109.872 495.075 109.196 495.363 108.5C496.279 106.289 497.198 104.079 498.117 101.869C498.765 100.307 499.414 98.7442 500.062 97.1815C505.706 83.5781 511.394 69.9924 517.096 56.4129C519.254 51.2713 521.408 46.1277 523.561 40.9835C524.198 39.4609 524.835 37.9383 525.472 36.4157C526.396 34.2093 527.319 32.0029 528.242 29.7963C529.085 27.7805 529.928 25.765 530.772 23.7496C531.023 23.1479 531.275 22.5462 531.534 21.9262C533.267 17.7887 533.267 17.7887 534.113 16.0996ZM528.042 39.6033C526.088 45.0468 524.135 50.491 522.185 55.936C521.279 58.4647 520.373 60.9932 519.465 63.5211C518.419 66.432 517.377 69.3438 516.334 72.2556C515.848 73.6076 515.848 73.6076 515.352 74.9869C515.048 75.8366 514.745 76.6862 514.432 77.5616C514.165 78.3041 513.899 79.0466 513.625 79.8116C512.784 82.3047 512.072 84.8395 511.349 87.369C518.861 86.9937 518.861 86.9937 526.525 86.6108C527.081 84.3881 527.401 82.7284 527.509 80.5031C527.539 79.905 527.569 79.3068 527.601 78.6905C527.645 77.7263 527.645 77.7263 527.689 76.7426C527.738 75.7319 527.738 75.7319 527.788 74.7009C527.857 73.2708 527.924 71.8407 527.989 70.4105C528.088 68.2641 528.193 66.118 528.299 63.9719C528.687 55.8412 528.899 47.7436 528.801 39.6033C528.551 39.6033 528.3 39.6033 528.042 39.6033Z" fill="#F6F6F6"/>
<path id="Vector_23" d="M348.967 16.0996C363.24 16.0996 377.513 16.0996 392.218 16.0996C391.459 22.9233 391.459 22.9233 390.7 25.956C383.06 25.5027 375.52 24.695 367.937 23.6815C367.9 24.1374 367.864 24.5934 367.826 25.0632C367.401 29.8415 366.621 34.4492 365.61 39.1354C365.459 39.8483 365.309 40.5612 365.154 41.2957C364.678 43.544 364.197 45.7911 363.716 48.0381C363.39 49.5742 363.064 51.1103 362.739 52.6465C361.947 56.3872 361.148 60.1261 360.349 63.8653C367.861 63.49 367.861 63.49 375.525 63.1071C374.766 69.9307 374.766 69.9307 374.007 72.9635C371.778 72.8568 369.549 72.7456 367.32 72.6318C366.688 72.602 366.055 72.5722 365.404 72.5414C364.795 72.5097 364.186 72.4779 363.559 72.4452C362.999 72.4174 362.438 72.3896 361.861 72.361C360.349 72.2053 360.349 72.2053 358.072 71.4471C357.976 72.1936 357.976 72.1936 357.877 72.9551C356.603 81.9731 354.588 90.8394 352.666 99.7369C352.307 101.409 351.948 103.081 351.59 104.752C350.719 108.815 349.844 112.877 348.967 116.938C349.468 116.688 349.969 116.438 350.484 116.18C352.635 115.876 354.775 115.608 356.934 115.374C357.549 115.307 358.164 115.239 358.798 115.169C363.133 114.714 367.369 114.523 371.731 114.664C370.979 117.916 370.228 121.169 369.454 124.52C355.181 124.52 340.909 124.52 326.203 124.52C330.562 101.874 330.562 101.874 332.169 94.4263C332.355 93.5582 332.54 92.6901 332.732 91.7957C333.325 89.0225 333.921 86.2499 334.517 83.4774C334.937 81.5167 335.357 79.5561 335.777 77.5954C336.756 73.0228 337.737 68.4507 338.719 63.8787C339.951 58.1428 341.18 52.4063 342.409 46.6699C344.592 36.4792 346.78 26.2894 348.967 16.0996Z" fill="#F6F6F6"/>
<path id="Vector_24" d="M289.781 16.0996C308.561 16.0996 327.341 16.0996 346.69 16.0996C345.931 23.6815 345.931 23.6815 344.414 26.7142C341.789 26.3552 339.165 25.9903 336.541 25.6243C335.794 25.5222 335.047 25.42 334.277 25.3148C333.563 25.2146 332.849 25.1145 332.113 25.0112C331.453 24.9199 330.794 24.8286 330.114 24.7345C328.479 24.4396 328.479 24.4396 326.962 23.6815C326.875 24.6168 326.789 25.552 326.7 26.5157C326.199 30.9902 325.265 35.3486 324.318 39.7468C324.126 40.6475 323.935 41.5483 323.738 42.4763C323.217 44.9265 322.693 47.376 322.167 49.8252C321.616 52.3942 321.069 54.964 320.522 57.5336C319.603 61.8417 318.681 66.1491 317.758 70.4562C316.691 75.4373 315.627 80.4192 314.566 85.4015C313.543 90.2011 312.518 95.0002 311.492 99.799C311.055 101.84 310.62 103.881 310.185 105.922C309.579 108.764 308.969 111.607 308.359 114.449C308.179 115.297 307.998 116.146 307.812 117.021C307.563 118.177 307.563 118.177 307.309 119.356C307.166 120.028 307.022 120.699 306.874 121.392C306.474 123.004 306.474 123.004 305.715 124.52C298.955 124.52 292.194 124.52 285.228 124.52C286.254 118.367 287.353 112.291 288.659 106.2C288.845 105.329 289.03 104.457 289.221 103.559C289.619 101.685 290.019 99.8113 290.419 97.9375C291.052 94.9749 291.683 92.0117 292.313 89.0484C293.535 83.3037 294.759 77.5596 295.984 71.8157C297.549 64.4768 299.113 57.1377 300.674 49.7979C301.401 46.3765 302.131 42.9557 302.862 39.5349C303.241 37.7555 303.62 35.976 303.998 34.1965C304.173 33.3796 304.348 32.5628 304.528 31.7212C304.686 30.9795 304.843 30.2378 305.005 29.4736C305.143 28.8271 305.281 28.1805 305.423 27.5144C305.762 25.9718 305.762 25.9718 305.715 24.4396C299.956 25.1902 294.197 25.9408 288.263 26.7142C289.022 19.1323 289.022 19.1323 289.781 16.0996Z" fill="#F6F6F6"/>
<path id="Vector_25" d="M560.67 68.4141C571.938 68.4141 583.206 68.4141 594.816 68.4141C594.057 75.9959 594.057 75.9959 592.539 83.5778C581.021 83.5778 569.502 83.5778 557.635 83.5778C558.636 78.5737 559.638 73.5697 560.67 68.4141Z" fill="#F6F6F6"/>
</g>
</g>
</g>
<defs>
<clipPath id="clip0_517_1110">
<rect width="627" height="281" fill="white"/>
</clipPath>
</defs>
</svg>
