<svg width="530" height="530" viewBox="0 0 530 530" fill="none" xmlns="http://www.w3.org/2000/svg">
<g clip-path="url(#clip0_615_655)">
<rect width="530" height="530" rx="67" fill="#3760CA"/>
<path d="M338.067 53.2532C353.739 66.8376 364.968 86.3326 366.558 107.235C367.8 132.012 362.27 154.383 345.336 173.14C330.777 188.507 310.721 198.595 289.358 199.282C272.929 199.527 259.362 196.378 244.198 190.301C243.967 190.817 243.735 191.333 243.496 191.864C241.868 194.907 239.873 197.642 237.847 200.426C236.974 201.636 236.101 202.845 235.228 204.055C234.778 204.678 234.327 205.3 233.863 205.942C231.555 209.137 229.266 212.345 226.976 215.552C226.149 216.708 225.322 217.865 224.495 219.021C223.903 219.849 223.311 220.676 222.701 221.529C224.215 225.135 226.448 227.417 229.174 230.19C244.997 247.36 250.205 269.197 249.266 292.052C247.753 314.203 235.484 332.475 219.769 347.416C218.79 348.39 217.812 349.365 216.838 350.344C217.58 351.344 218.321 352.344 219.086 353.374C220.067 354.702 221.048 356.03 222.029 357.358C222.761 358.344 222.761 358.344 223.508 359.349C226.027 362.765 228.414 366.167 230.518 369.861C231.386 369.579 232.254 369.297 233.148 369.007C252.057 363.343 271.617 364.093 289.259 373.086C292.079 374.74 292.079 374.74 294.916 377.245C299.891 380.783 305.167 380.293 311.07 380.235C312.3 380.242 313.53 380.25 314.798 380.257C318.217 380.277 321.636 380.266 325.055 380.25C328.773 380.239 332.491 380.255 336.209 380.268C342.726 380.287 349.244 380.288 355.761 380.277C365.452 380.26 375.143 380.272 384.834 380.289C401.136 380.318 417.438 380.323 433.74 380.316C449.883 380.309 466.026 380.312 482.169 380.329C483.674 380.33 483.674 380.33 485.209 380.332C490.305 380.337 495.4 380.342 500.495 380.348C536.596 380.386 572.696 380.402 608.796 380.405C643.869 380.407 678.942 380.42 714.015 380.447C715.096 380.447 716.177 380.448 717.291 380.449C728.146 380.457 739.001 380.466 749.855 380.474C771.969 380.492 794.082 380.508 816.195 380.523C817.72 380.524 817.72 380.524 819.276 380.525C887.184 380.572 955.092 380.586 1023 380.595C1023 384.782 1023 388.968 1023 393.282C671.352 393.765 671.352 393.765 312.6 394.258C314.857 398.766 317.114 403.275 319.44 407.92C325.518 425.318 324.441 443.975 316.509 460.617C307.361 477.565 293.557 489.189 275.063 494.81C259.048 498.673 241.377 497.659 226.609 489.892C210.535 480.047 198.477 466.914 193.412 448.35C189.451 430.426 191.156 412.439 200.844 396.514C204.981 390.438 209.681 384.815 214.883 379.62C213.017 376.931 211.142 374.25 209.265 371.569C208.738 370.81 208.212 370.052 207.669 369.27C205.089 365.594 202.605 362.153 199.249 359.126C198.513 359.386 197.777 359.645 197.019 359.912C175.97 366.902 154.214 366.886 134.03 357.038C130.989 355.502 127.981 353.916 124.984 352.295C123.801 353.999 123.801 353.999 123.03 356.199C123.606 358.397 123.606 358.397 124.801 360.529C129.033 368.824 129.204 378.806 126.755 387.731C122.918 398.865 115.686 406.29 105.441 411.823C95.0956 416.388 84.6873 415.667 74.1484 412.075C64.9909 408.21 57.5401 400.403 53.4333 391.391C49.2201 380.227 49.8263 368.985 54.6891 358.151C59.9092 348.349 67.85 342.64 78.1029 338.885C87.3912 336.121 95.803 337.629 104.803 340.707C107.249 341.663 107.249 341.663 109.349 341.561C108.049 337.804 106.431 335.364 103.792 332.412C91.094 316.877 86.4833 295.544 88.1189 275.896C90.0276 259.963 95.5843 245.509 106.009 233.213C107.434 231.234 107.961 229.767 108.372 227.384C104.658 228.03 101.294 229.115 97.7455 230.373C84.9225 234.319 72.6838 232.862 60.701 227.038C49.5725 220.785 42.1876 211.423 38.5277 199.168C35.1705 185.807 37.4741 173.52 44.1845 161.693C50.7374 151.183 60.6082 144.302 72.6445 141.142C84.8041 139.012 97.9204 140.431 108.372 147.363C118.789 155.576 125.973 164.507 128.893 177.615C129.815 192.711 127.627 203.852 119.121 216.65C120.088 216.972 121.056 217.294 122.052 217.626C124.412 216.41 124.412 216.41 126.999 214.637C132.147 211.505 137.215 209.373 142.939 207.501C144.054 207.135 144.054 207.135 145.192 206.761C165.383 200.373 187.012 203.349 206.089 211.771C214.043 201.459 221.881 191.075 229.541 180.543C226.546 177.026 223.535 173.549 220.38 170.174C206.149 153.856 199.786 132.686 201.038 111.269C202.637 92.1934 210.089 74.8883 222.701 60.5112C223.553 59.5206 223.553 59.5206 224.422 58.5099C254.236 26.281 304.895 27.2117 338.067 53.2532Z" fill="white"/>
</g>
<defs>
<clipPath id="clip0_615_655">
<rect width="530" height="530" rx="67" fill="white"/>
</clipPath>
</defs>
</svg>
